<?xml version="1.0" encoding="UTF-8" standalone="no"?>
<!-- Created with Inkscape (http://www.inkscape.org/) -->

<svg
   xmlns:dc="http://purl.org/dc/elements/1.1/"
   xmlns:cc="http://creativecommons.org/ns#"
   xmlns:rdf="http://www.w3.org/1999/02/22-rdf-syntax-ns#"
   xmlns:svg="http://www.w3.org/2000/svg"
   xmlns="http://www.w3.org/2000/svg"
   xmlns:sodipodi="http://sodipodi.sourceforge.net/DTD/sodipodi-0.dtd"
   xmlns:inkscape="http://www.inkscape.org/namespaces/inkscape"
   version="1.1"
   id="svg6363"
   xml:space="preserve"
   width="1199.2933"
   height="539.68805"
   viewBox="0 0 1199.2933 539.68805"
   sodipodi:docname="hierarchical.svg"
   inkscape:version="0.92.3 (2405546, 2018-03-11)"><metadata
     id="metadata6369"><rdf:RDF><cc:Work
         rdf:about=""><dc:format>image/svg+xml</dc:format><dc:type
           rdf:resource="http://purl.org/dc/dcmitype/StillImage" /><dc:title></dc:title></cc:Work></rdf:RDF></metadata><defs
     id="defs6367"><clipPath
       clipPathUnits="userSpaceOnUse"
       id="clipPath6379"><path
         d="M 0,1.2207e-4 H 1872 V 540.00012 H 0 Z"
         id="path6377"
         inkscape:connector-curvature="0"
         style="clip-rule:evenodd" /></clipPath><clipPath
       clipPathUnits="userSpaceOnUse"
       id="clipPath6395"><path
         d="M -3.0518e-5,540 H 1872 V 6.1035e-5 H 0"
         id="path6393"
         inkscape:connector-curvature="0"
         style="clip-rule:evenodd" /></clipPath><clipPath
       clipPathUnits="userSpaceOnUse"
       id="clipPath6409"><path
         d="M 0,540 H 1872 V 6.1035e-5 H 0"
         id="path6407"
         inkscape:connector-curvature="0"
         style="clip-rule:evenodd" /></clipPath><clipPath
       clipPathUnits="userSpaceOnUse"
       id="clipPath6423"><path
         d="M -1.2207e-4,540 H 1872 V 6.1035e-5 H -6.1035e-5"
         id="path6421"
         inkscape:connector-curvature="0"
         style="clip-rule:evenodd" /></clipPath><clipPath
       clipPathUnits="userSpaceOnUse"
       id="clipPath6449"><path
         d="M -6.1035e-5,540 H 1872 V 6.1035e-5 H -6.1035e-5"
         id="path6447"
         inkscape:connector-curvature="0"
         style="clip-rule:evenodd" /></clipPath><clipPath
       clipPathUnits="userSpaceOnUse"
       id="clipPath6463"><path
         d="M 0,540 H 1872 V 6.1035e-5 H 0"
         id="path6461"
         inkscape:connector-curvature="0"
         style="clip-rule:evenodd" /></clipPath><clipPath
       clipPathUnits="userSpaceOnUse"
       id="clipPath6481"><path
         d="M -2.4414e-4,540 H 1872 V 1.2207e-4 H -1.2207e-4"
         id="path6479"
         inkscape:connector-curvature="0"
         style="clip-rule:evenodd" /></clipPath><clipPath
       clipPathUnits="userSpaceOnUse"
       id="clipPath6491"><path
         d="M -1.8311e-4,540 H 1872 V 1.2207e-4 H -1.2207e-4"
         id="path6489"
         inkscape:connector-curvature="0"
         style="clip-rule:evenodd" /></clipPath><clipPath
       clipPathUnits="userSpaceOnUse"
       id="clipPath6501"><path
         d="M -1.2207e-4,540 H 1872 V 1.2207e-4 H -6.1035e-5"
         id="path6499"
         inkscape:connector-curvature="0"
         style="clip-rule:evenodd" /></clipPath><clipPath
       clipPathUnits="userSpaceOnUse"
       id="clipPath6511"><path
         d="M -3.6621e-4,540 H 1872 V 1.2207e-4 H -2.4414e-4"
         id="path6509"
         inkscape:connector-curvature="0"
         style="clip-rule:evenodd" /></clipPath><clipPath
       clipPathUnits="userSpaceOnUse"
       id="clipPath6521"><path
         d="M -1.2207e-4,540 H 1872 V 1.2207e-4 H -6.1035e-5"
         id="path6519"
         inkscape:connector-curvature="0"
         style="clip-rule:evenodd" /></clipPath><clipPath
       clipPathUnits="userSpaceOnUse"
       id="clipPath6569"><path
         d="M 2.7895e-5,0 H 1872 V 540 H 2.7895e-5 Z"
         id="path6567"
         inkscape:connector-curvature="0"
         style="clip-rule:evenodd" /></clipPath><clipPath
       clipPathUnits="userSpaceOnUse"
       id="clipPath6581"><path
         d="M 2.7895e-5,0 H 1872 V 540 H 2.7895e-5 Z"
         id="path6579"
         inkscape:connector-curvature="0"
         style="clip-rule:evenodd" /></clipPath><clipPath
       clipPathUnits="userSpaceOnUse"
       id="clipPath6593"><path
         d="M 2.7895e-5,0 H 1872 V 540 H 2.7895e-5 Z"
         id="path6591"
         inkscape:connector-curvature="0"
         style="clip-rule:evenodd" /></clipPath><clipPath
       clipPathUnits="userSpaceOnUse"
       id="clipPath6605"><path
         d="M 2.7895e-5,0 H 1872 V 540 H 2.7895e-5 Z"
         id="path6603"
         inkscape:connector-curvature="0"
         style="clip-rule:evenodd" /></clipPath><clipPath
       clipPathUnits="userSpaceOnUse"
       id="clipPath6617"><path
         d="M 2.7895e-5,0 H 1872 V 540 H 2.7895e-5 Z"
         id="path6615"
         inkscape:connector-curvature="0"
         style="clip-rule:evenodd" /></clipPath><clipPath
       clipPathUnits="userSpaceOnUse"
       id="clipPath6629"><path
         d="M 2.7895e-5,0 H 1872 V 540 H 2.7895e-5 Z"
         id="path6627"
         inkscape:connector-curvature="0"
         style="clip-rule:evenodd" /></clipPath><clipPath
       clipPathUnits="userSpaceOnUse"
       id="clipPath6641"><path
         d="M 2.7895e-5,0 H 1872 V 540 H 2.7895e-5 Z"
         id="path6639"
         inkscape:connector-curvature="0"
         style="clip-rule:evenodd" /></clipPath><clipPath
       clipPathUnits="userSpaceOnUse"
       id="clipPath6653"><path
         d="M 2.7895e-5,0 H 1872 V 540 H 2.7895e-5 Z"
         id="path6651"
         inkscape:connector-curvature="0"
         style="clip-rule:evenodd" /></clipPath><clipPath
       clipPathUnits="userSpaceOnUse"
       id="clipPath6665"><path
         d="M 2.7895e-5,0 H 1872 V 540 H 2.7895e-5 Z"
         id="path6663"
         inkscape:connector-curvature="0"
         style="clip-rule:evenodd" /></clipPath><clipPath
       clipPathUnits="userSpaceOnUse"
       id="clipPath6677"><path
         d="M 2.7895e-5,0 H 1872 V 540 H 2.7895e-5 Z"
         id="path6675"
         inkscape:connector-curvature="0"
         style="clip-rule:evenodd" /></clipPath><clipPath
       clipPathUnits="userSpaceOnUse"
       id="clipPath6689"><path
         d="M 2.7895e-5,0 H 1872 V 540 H 2.7895e-5 Z"
         id="path6687"
         inkscape:connector-curvature="0"
         style="clip-rule:evenodd" /></clipPath><clipPath
       clipPathUnits="userSpaceOnUse"
       id="clipPath6701"><path
         d="M 2.7895e-5,0 H 1872 V 540 H 2.7895e-5 Z"
         id="path6699"
         inkscape:connector-curvature="0"
         style="clip-rule:evenodd" /></clipPath><clipPath
       clipPathUnits="userSpaceOnUse"
       id="clipPath6713"><path
         d="M 2.7895e-5,0 H 1872 V 540 H 2.7895e-5 Z"
         id="path6711"
         inkscape:connector-curvature="0"
         style="clip-rule:evenodd" /></clipPath><clipPath
       clipPathUnits="userSpaceOnUse"
       id="clipPath6725"><path
         d="M 2.7895e-5,0 H 1872 V 540 H 2.7895e-5 Z"
         id="path6723"
         inkscape:connector-curvature="0"
         style="clip-rule:evenodd" /></clipPath><clipPath
       clipPathUnits="userSpaceOnUse"
       id="clipPath6737"><path
         d="M 2.7895e-5,0 H 1872 V 540 H 2.7895e-5 Z"
         id="path6735"
         inkscape:connector-curvature="0"
         style="clip-rule:evenodd" /></clipPath><clipPath
       clipPathUnits="userSpaceOnUse"
       id="clipPath6749"><path
         d="M 2.7895e-5,0 H 1872 V 540 H 2.7895e-5 Z"
         id="path6747"
         inkscape:connector-curvature="0"
         style="clip-rule:evenodd" /></clipPath><clipPath
       clipPathUnits="userSpaceOnUse"
       id="clipPath6761"><path
         d="M 2.7895e-5,0 H 1872 V 540 H 2.7895e-5 Z"
         id="path6759"
         inkscape:connector-curvature="0"
         style="clip-rule:evenodd" /></clipPath><clipPath
       clipPathUnits="userSpaceOnUse"
       id="clipPath6773"><path
         d="M 2.7895e-5,0 H 1872 V 540 H 2.7895e-5 Z"
         id="path6771"
         inkscape:connector-curvature="0"
         style="clip-rule:evenodd" /></clipPath><clipPath
       clipPathUnits="userSpaceOnUse"
       id="clipPath6785"><path
         d="M 2.7895e-5,0 H 1872 V 540 H 2.7895e-5 Z"
         id="path6783"
         inkscape:connector-curvature="0"
         style="clip-rule:evenodd" /></clipPath><clipPath
       clipPathUnits="userSpaceOnUse"
       id="clipPath6797"><path
         d="M 2.7895e-5,0 H 1872 V 540 H 2.7895e-5 Z"
         id="path6795"
         inkscape:connector-curvature="0"
         style="clip-rule:evenodd" /></clipPath></defs><sodipodi:namedview
     pagecolor="#ffffff"
     bordercolor="#666666"
     borderopacity="1"
     objecttolerance="10"
     gridtolerance="10"
     guidetolerance="10"
     inkscape:pageopacity="0"
     inkscape:pageshadow="2"
     inkscape:window-width="2400"
     inkscape:window-height="1284"
     id="namedview6365"
     showgrid="false"
     inkscape:zoom="0.13581731"
     inkscape:cx="852.08001"
     inkscape:cy="328.7455"
     inkscape:window-x="-9"
     inkscape:window-y="-9"
     inkscape:window-maximized="1"
     inkscape:current-layer="g6375" /><g
     id="g6371"
     inkscape:groupmode="layer"
     inkscape:label="w8"
     transform="matrix(1.3333333,0,0,-1.3333333,-395.91999,570.94257)"><g
       id="g6373"><g
         id="g6375"
         clip-path="url(#clipPath6379)" /></g><path
       d="m 340.2,180.5 c 0,8.54 6.92,15.46 15.46,15.46 h 61.84 c 8.54,0 15.46,-6.92 15.46,-15.46 v -61.84 c 0,-8.54 -6.92,-15.46 -15.46,-15.46 h -61.84 c -8.54,0 -15.46,6.92 -15.46,15.46 z"
       style="fill:#fbe5d6;fill-opacity:1;fill-rule:evenodd;stroke:none"
       id="path6383"
       inkscape:connector-curvature="0" /><path
       d="m 340.2,180.5 c 0,8.54 6.92,15.46 15.46,15.46 h 61.84 c 8.54,0 15.46,-6.92 15.46,-15.46 v -61.84 c 0,-8.54 -6.92,-15.46 -15.46,-15.46 h -61.84 c -8.54,0 -15.46,6.92 -15.46,15.46 z"
       style="fill:none;stroke:#41719c;stroke-width:0.95999998;stroke-linecap:butt;stroke-linejoin:miter;stroke-miterlimit:10;stroke-dasharray:none;stroke-opacity:1"
       id="path6385"
       inkscape:connector-curvature="0" /><path
       d="M 409.32,58.906 V 85.06 h -1.56 V 58.906 Z m 2.22,25.154 -3,6 -3,-6 z"
       style="fill:#000000;fill-opacity:1;fill-rule:nonzero;stroke:none"
       id="path6387"
       inkscape:connector-curvature="0" /><g
       id="g6389"><g
         id="g6391"
         clip-path="url(#clipPath6395)"><path
           d="m 296.94,145.68 h 26.15 v 1.56 h -26.15 z m 25.15,-2.22 6,3 -6,3 z"
           style="fill:#000000;fill-opacity:1;fill-rule:nonzero;stroke:none"
           id="path6397"
           inkscape:connector-curvature="0" /></g></g><path
       d="m 505.92,180.5 c 0,8.54 6.92,15.46 15.46,15.46 h 61.84 c 8.54,0 15.46,-6.92 15.46,-15.46 v -61.84 c 0,-8.54 -6.92,-15.46 -15.46,-15.46 h -61.84 c -8.54,0 -15.46,6.92 -15.46,15.46 z"
       style="fill:#fbe5d6;fill-opacity:1;fill-rule:evenodd;stroke:none"
       id="path6399"
       inkscape:connector-curvature="0" /><path
       d="m 505.92,180.5 c 0,8.54 6.92,15.46 15.46,15.46 h 61.84 c 8.54,0 15.46,-6.92 15.46,-15.46 v -61.84 c 0,-8.54 -6.92,-15.46 -15.46,-15.46 h -61.84 c -8.54,0 -15.46,6.92 -15.46,15.46 z"
       style="fill:none;stroke:#41719c;stroke-width:0.95999998;stroke-linecap:butt;stroke-linejoin:miter;stroke-miterlimit:10;stroke-dasharray:none;stroke-opacity:1"
       id="path6401"
       inkscape:connector-curvature="0" /><g
       id="g6403"><g
         id="g6405"
         clip-path="url(#clipPath6409)"><path
           d="m 453.9,145.68 h 26.15 v 1.56 H 453.9 Z m 25.15,-2.22 6,3 -6,3 z"
           style="fill:#000000;fill-opacity:1;fill-rule:nonzero;stroke:none"
           id="path6411"
           inkscape:connector-curvature="0" /></g></g><path
       d="m 671.76,180.5 c 0,8.54 6.92,15.46 15.46,15.46 h 61.84 c 8.54,0 15.46,-6.92 15.46,-15.46 v -61.84 c 0,-8.54 -6.92,-15.46 -15.46,-15.46 h -61.84 c -8.54,0 -15.46,6.92 -15.46,15.46 z"
       style="fill:#fbe5d6;fill-opacity:1;fill-rule:evenodd;stroke:none"
       id="path6413"
       inkscape:connector-curvature="0" /><path
       d="m 671.76,180.5 c 0,8.54 6.92,15.46 15.46,15.46 h 61.84 c 8.54,0 15.46,-6.92 15.46,-15.46 v -61.84 c 0,-8.54 -6.92,-15.46 -15.46,-15.46 h -61.84 c -8.54,0 -15.46,6.92 -15.46,15.46 z"
       style="fill:none;stroke:#41719c;stroke-width:0.95999998;stroke-linecap:butt;stroke-linejoin:miter;stroke-miterlimit:10;stroke-dasharray:none;stroke-opacity:1"
       id="path6415"
       inkscape:connector-curvature="0" /><g
       id="g6417"><g
         id="g6419"
         clip-path="url(#clipPath6423)"><path
           d="m 619.74,145.68 h 26.15 v 1.56 h -26.15 z m 25.15,-2.22 6,3 -6,3 z"
           style="fill:#000000;fill-opacity:1;fill-rule:nonzero;stroke:none"
           id="path6425"
           inkscape:connector-curvature="0" /></g></g><path
       d="m 386.52,338.06 c 0,8.54 6.92,15.46 15.46,15.46 h 61.84 c 8.54,0 15.46,-6.92 15.46,-15.46 v -61.84 c 0,-8.54 -6.92,-15.46 -15.46,-15.46 h -61.84 c -8.54,0 -15.46,6.92 -15.46,15.46 z"
       style="fill:#e2f0d9;fill-opacity:1;fill-rule:evenodd;stroke:none"
       id="path6427"
       inkscape:connector-curvature="0" /><path
       d="m 386.52,338.06 c 0,8.54 6.92,15.46 15.46,15.46 h 61.84 c 8.54,0 15.46,-6.92 15.46,-15.46 v -61.84 c 0,-8.54 -6.92,-15.46 -15.46,-15.46 h -61.84 c -8.54,0 -15.46,6.92 -15.46,15.46 z"
       style="fill:none;stroke:#41719c;stroke-width:0.95999998;stroke-linecap:butt;stroke-linejoin:miter;stroke-miterlimit:10;stroke-dasharray:none;stroke-opacity:1"
       id="path6429"
       inkscape:connector-curvature="0" /><path
       d="m 552.36,338.06 c 0,8.54 6.92,15.46 15.46,15.46 h 61.84 c 8.54,0 15.46,-6.92 15.46,-15.46 v -61.84 c 0,-8.54 -6.92,-15.46 -15.46,-15.46 h -61.84 c -8.54,0 -15.46,6.92 -15.46,15.46 z"
       style="fill:#e2f0d9;fill-opacity:1;fill-rule:evenodd;stroke:none"
       id="path6431"
       inkscape:connector-curvature="0" /><path
       d="m 552.36,338.06 c 0,8.54 6.92,15.46 15.46,15.46 h 61.84 c 8.54,0 15.46,-6.92 15.46,-15.46 v -61.84 c 0,-8.54 -6.92,-15.46 -15.46,-15.46 h -61.84 c -8.54,0 -15.46,6.92 -15.46,15.46 z"
       style="fill:none;stroke:#41719c;stroke-width:0.95999998;stroke-linecap:butt;stroke-linejoin:miter;stroke-miterlimit:10;stroke-dasharray:none;stroke-opacity:1"
       id="path6433"
       inkscape:connector-curvature="0" /><path
       d="m 718.08,338.06 c 0,8.54 6.92,15.46 15.46,15.46 h 61.84 c 8.54,0 15.46,-6.92 15.46,-15.46 v -61.84 c 0,-8.54 -6.92,-15.46 -15.46,-15.46 h -61.84 c -8.54,0 -15.46,6.92 -15.46,15.46 z"
       style="fill:#e2f0d9;fill-opacity:1;fill-rule:evenodd;stroke:none"
       id="path6435"
       inkscape:connector-curvature="0" /><path
       d="m 718.08,338.06 c 0,8.54 6.92,15.46 15.46,15.46 h 61.84 c 8.54,0 15.46,-6.92 15.46,-15.46 v -61.84 c 0,-8.54 -6.92,-15.46 -15.46,-15.46 h -61.84 c -8.54,0 -15.46,6.92 -15.46,15.46 z"
       style="fill:none;stroke:#41719c;stroke-width:0.95999998;stroke-linecap:butt;stroke-linejoin:miter;stroke-miterlimit:10;stroke-dasharray:none;stroke-opacity:1"
       id="path6437"
       inkscape:connector-curvature="0" /><path
       d="m 837.48,180.5 c 0,8.54 6.92,15.46 15.46,15.46 h 61.84 c 8.54,0 15.46,-6.92 15.46,-15.46 v -61.84 c 0,-8.54 -6.92,-15.46 -15.46,-15.46 h -61.84 c -8.54,0 -15.46,6.92 -15.46,15.46 z"
       style="fill:#fbe5d6;fill-opacity:1;fill-rule:evenodd;stroke:none"
       id="path6439"
       inkscape:connector-curvature="0" /><path
       d="m 837.48,180.5 c 0,8.54 6.92,15.46 15.46,15.46 h 61.84 c 8.54,0 15.46,-6.92 15.46,-15.46 v -61.84 c 0,-8.54 -6.92,-15.46 -15.46,-15.46 h -61.84 c -8.54,0 -15.46,6.92 -15.46,15.46 z"
       style="fill:none;stroke:#41719c;stroke-width:0.95999998;stroke-linecap:butt;stroke-linejoin:miter;stroke-miterlimit:10;stroke-dasharray:none;stroke-opacity:1"
       id="path6441"
       inkscape:connector-curvature="0" /><g
       id="g6443"><g
         id="g6445"
         clip-path="url(#clipPath6449)"><path
           d="m 785.46,145.68 h 26.15 v 1.56 h -26.15 z m 25.15,-2.22 6,3 -6,3 z"
           style="fill:#000000;fill-opacity:1;fill-rule:nonzero;stroke:none"
           id="path6451"
           inkscape:connector-curvature="0" /></g></g><path
       d="m 1003.32,180.5 c 0,8.54 6.92,15.46 15.46,15.46 h 61.84 c 8.54,0 15.46,-6.92 15.46,-15.46 v -61.84 c 0,-8.54 -6.92,-15.46 -15.46,-15.46 h -61.84 c -8.54,0 -15.46,6.92 -15.46,15.46 z"
       style="fill:#fbe5d6;fill-opacity:1;fill-rule:evenodd;stroke:none"
       id="path6453"
       inkscape:connector-curvature="0" /><path
       d="m 1003.32,180.5 c 0,8.54 6.92,15.46 15.46,15.46 h 61.84 c 8.54,0 15.46,-6.92 15.46,-15.46 v -61.84 c 0,-8.54 -6.92,-15.46 -15.46,-15.46 h -61.84 c -8.54,0 -15.46,6.92 -15.46,15.46 z"
       style="fill:none;stroke:#41719c;stroke-width:0.95999998;stroke-linecap:butt;stroke-linejoin:miter;stroke-miterlimit:10;stroke-dasharray:none;stroke-opacity:1"
       id="path6455"
       inkscape:connector-curvature="0" /><g
       id="g6457"><g
         id="g6459"
         clip-path="url(#clipPath6463)"><path
           d="m 951.3,145.68 h 26.15 v 1.56 H 951.3 Z m 25.15,-2.22 6,3 -6,3 z"
           style="fill:#000000;fill-opacity:1;fill-rule:nonzero;stroke:none"
           id="path6465"
           inkscape:connector-curvature="0" /></g></g><path
       d="m 883.92,338.06 c 0,8.54 6.92,15.46 15.46,15.46 h 61.84 c 8.54,0 15.46,-6.92 15.46,-15.46 v -61.84 c 0,-8.54 -6.92,-15.46 -15.46,-15.46 h -61.84 c -8.54,0 -15.46,6.92 -15.46,15.46 z"
       style="fill:#e2f0d9;fill-opacity:1;fill-rule:evenodd;stroke:none"
       id="path6467"
       inkscape:connector-curvature="0" /><path
       d="m 883.92,338.06 c 0,8.54 6.92,15.46 15.46,15.46 h 61.84 c 8.54,0 15.46,-6.92 15.46,-15.46 v -61.84 c 0,-8.54 -6.92,-15.46 -15.46,-15.46 h -61.84 c -8.54,0 -15.46,6.92 -15.46,15.46 z"
       style="fill:none;stroke:#41719c;stroke-width:0.95999998;stroke-linecap:butt;stroke-linejoin:miter;stroke-miterlimit:10;stroke-dasharray:none;stroke-opacity:1"
       id="path6469"
       inkscape:connector-curvature="0" /><path
       d="m 1049.64,338.06 c 0,8.54 6.92,15.46 15.46,15.46 h 61.84 c 8.54,0 15.46,-6.92 15.46,-15.46 v -61.84 c 0,-8.54 -6.92,-15.46 -15.46,-15.46 h -61.84 c -8.54,0 -15.46,6.92 -15.46,15.46 z"
       style="fill:#e2f0d9;fill-opacity:1;fill-rule:evenodd;stroke:none"
       id="path6471"
       inkscape:connector-curvature="0" /><path
       d="m 1049.64,338.06 c 0,8.54 6.92,15.46 15.46,15.46 h 61.84 c 8.54,0 15.46,-6.92 15.46,-15.46 v -61.84 c 0,-8.54 -6.92,-15.46 -15.46,-15.46 h -61.84 c -8.54,0 -15.46,6.92 -15.46,15.46 z"
       style="fill:none;stroke:#41719c;stroke-width:0.95999998;stroke-linecap:butt;stroke-linejoin:miter;stroke-miterlimit:10;stroke-dasharray:none;stroke-opacity:1"
       id="path6473"
       inkscape:connector-curvature="0" /><g
       id="g6475"><g
         id="g6477"
         clip-path="url(#clipPath6481)"><path
           d="m 1026.97,301.8 h -26.15 v -1.56 h 26.15 z m -25.15,2.22 -6,-3 6,-3 z"
           style="fill:#000000;fill-opacity:1;fill-rule:nonzero;stroke:none"
           id="path6483"
           inkscape:connector-curvature="0" /></g></g><g
       id="g6485"><g
         id="g6487"
         clip-path="url(#clipPath6491)"><path
           d="m 695.41,301.8 h -26.15 v -1.56 h 26.15 z m -25.15,2.22 -6,-3 6,-3 z"
           style="fill:#000000;fill-opacity:1;fill-rule:nonzero;stroke:none"
           id="path6493"
           inkscape:connector-curvature="0" /></g></g><g
       id="g6495"><g
         id="g6497"
         clip-path="url(#clipPath6501)"><path
           d="m 861.13,301.8 h -26.15 v -1.56 h 26.15 z m -25.15,2.22 -6,-3 6,-3 z"
           style="fill:#000000;fill-opacity:1;fill-rule:nonzero;stroke:none"
           id="path6503"
           inkscape:connector-curvature="0" /></g></g><g
       id="g6505"><g
         id="g6507"
         clip-path="url(#clipPath6511)"><path
           d="m 1196.41,301.8 h -26.15 v -1.56 h 26.15 z m -25.15,2.22 -6,-3 6,-3 z"
           style="fill:#000000;fill-opacity:1;fill-rule:nonzero;stroke:none"
           id="path6513"
           inkscape:connector-curvature="0" /></g></g><g
       id="g6515"><g
         id="g6517"
         clip-path="url(#clipPath6521)"><path
           d="m 529.57,301.8 h -26.15 v -1.56 h 26.15 z m -25.15,2.22 -6,-3 6,-3 z"
           style="fill:#000000;fill-opacity:1;fill-rule:nonzero;stroke:none"
           id="path6523"
           inkscape:connector-curvature="0" /></g></g><path
       d="M 446.52,57.595 V 233.98 h -1.56 V 57.595 Z m 2.22,175.385 -3,6 -3,-6 z"
       style="fill:#000000;fill-opacity:1;fill-rule:nonzero;stroke:none"
       id="path6525"
       inkscape:connector-curvature="0" /><path
       d="M 576.24,61.786 V 87.94 h -1.56 V 61.786 Z m 2.22,25.154 -3,6 -3,-6 z"
       style="fill:#000000;fill-opacity:1;fill-rule:nonzero;stroke:none"
       id="path6527"
       inkscape:connector-curvature="0" /><path
       d="M 613.44,60.595 V 236.98 h -1.56 V 60.595 Z m 2.22,175.385 -3,6 -3,-6 z"
       style="fill:#000000;fill-opacity:1;fill-rule:nonzero;stroke:none"
       id="path6529"
       inkscape:connector-curvature="0" /><path
       d="M 742.08,62.986 V 89.14 h -1.56 V 62.986 Z m 2.22,25.154 -3,6 -3,-6 z"
       style="fill:#000000;fill-opacity:1;fill-rule:nonzero;stroke:none"
       id="path6531"
       inkscape:connector-curvature="0" /><path
       d="M 779.28,61.795 V 238.18 h -1.56 V 61.795 Z m 2.22,175.385 -3,6 -3,-6 z"
       style="fill:#000000;fill-opacity:1;fill-rule:nonzero;stroke:none"
       id="path6533"
       inkscape:connector-curvature="0" /><path
       d="M 904.8,64.306 V 90.46 h -1.56 V 64.306 Z m 2.22,25.154 -3,6 -3,-6 z"
       style="fill:#000000;fill-opacity:1;fill-rule:nonzero;stroke:none"
       id="path6535"
       inkscape:connector-curvature="0" /><path
       d="M 942,62.995 V 239.38 h -1.56 V 62.995 Z m 2.22,175.385 -3,6 -3,-6 z"
       style="fill:#000000;fill-opacity:1;fill-rule:nonzero;stroke:none"
       id="path6537"
       inkscape:connector-curvature="0" /><path
       d="M 1071.72,62.986 V 89.14 h -1.56 V 62.986 Z m 2.22,25.154 -3,6 -3,-6 z"
       style="fill:#000000;fill-opacity:1;fill-rule:nonzero;stroke:none"
       id="path6539"
       inkscape:connector-curvature="0" /><path
       d="M 1108.92,61.795 V 238.18 h -1.56 V 61.795 Z m 2.22,175.385 -3,6 -3,-6 z"
       style="fill:#000000;fill-opacity:1;fill-rule:nonzero;stroke:none"
       id="path6541"
       inkscape:connector-curvature="0" /><path
       d="m 1073.64,364.55 v 26.15 h -1.56 v -26.15 z m 2.22,25.15 -3,6 -3,-6 z"
       style="fill:#000000;fill-opacity:1;fill-rule:nonzero;stroke:none"
       id="path6543"
       inkscape:connector-curvature="0" /><path
       d="M 1040.76,214.32 V 390.7 h -1.56 V 214.32 Z m 2.22,175.38 -3,6 -3,-6 z"
       style="fill:#000000;fill-opacity:1;fill-rule:nonzero;stroke:none"
       id="path6545"
       inkscape:connector-curvature="0" /><path
       d="m 907.56,365.51 v 26.15 H 906 v -26.15 z m 2.22,25.15 -3,6 -3,-6 z"
       style="fill:#000000;fill-opacity:1;fill-rule:nonzero;stroke:none"
       id="path6547"
       inkscape:connector-curvature="0" /><path
       d="M 874.56,215.28 V 391.66 H 873 V 215.28 Z m 2.22,175.38 -3,6 -3,-6 z"
       style="fill:#000000;fill-opacity:1;fill-rule:nonzero;stroke:none"
       id="path6549"
       inkscape:connector-curvature="0" /><path
       d="m 742.08,364.55 v 26.15 h -1.56 v -26.15 z m 2.22,25.15 -3,6 -3,-6 z"
       style="fill:#000000;fill-opacity:1;fill-rule:nonzero;stroke:none"
       id="path6551"
       inkscape:connector-curvature="0" /><path
       d="M 709.08,214.32 V 390.7 h -1.56 V 214.32 Z m 2.22,175.38 -3,6 -3,-6 z"
       style="fill:#000000;fill-opacity:1;fill-rule:nonzero;stroke:none"
       id="path6553"
       inkscape:connector-curvature="0" /><path
       d="m 576.24,366.83 v 26.15 h -1.56 v -26.15 z m 2.22,25.15 -3,6 -3,-6 z"
       style="fill:#000000;fill-opacity:1;fill-rule:nonzero;stroke:none"
       id="path6555"
       inkscape:connector-curvature="0" /><path
       d="m 543.24,216.6 v 176.38 h -1.56 V 216.6 Z m 2.22,175.38 -3,6 -3,-6 z"
       style="fill:#000000;fill-opacity:1;fill-rule:nonzero;stroke:none"
       id="path6557"
       inkscape:connector-curvature="0" /><path
       d="m 409.32,364.55 v 26.15 h -1.56 v -26.15 z m 2.22,25.15 -3,6 -3,-6 z"
       style="fill:#000000;fill-opacity:1;fill-rule:nonzero;stroke:none"
       id="path6559"
       inkscape:connector-curvature="0" /><path
       d="M 376.32,214.32 V 390.7 h -1.56 V 214.32 Z m 2.22,175.38 -3,6 -3,-6 z"
       style="fill:#000000;fill-opacity:1;fill-rule:nonzero;stroke:none"
       id="path6561"
       inkscape:connector-curvature="0" /><g
       id="g6563"><g
         id="g6565"
         clip-path="url(#clipPath6569)"><text
           transform="matrix(1,0,0,-1,418.87,27.264)"
           style="font-variant:normal;font-weight:normal;font-size:18px;font-family:'Cambria Math';-inkscape-font-specification:'Cambria Math';writing-mode:lr-tb;fill:#000000;fill-opacity:1;fill-rule:nonzero;stroke:none"
           id="text6573"><tspan
             x="0"
             y="0"
             id="tspan6571">풙</tspan></text>
</g></g><g
       id="g6575"><g
         id="g6577"
         clip-path="url(#clipPath6581)"><text
           transform="matrix(1,0,0,-1,428.95,23.544)"
           style="font-variant:normal;font-weight:normal;font-size:13.19999981px;font-family:'Cambria Math';-inkscape-font-specification:'Cambria Math';writing-mode:lr-tb;fill:#000000;fill-opacity:1;fill-rule:nonzero;stroke:none"
           id="text6585"><tspan
             x="0"
             y="0"
             id="tspan6583">1</tspan></text>
</g></g><g
       id="g6587"><g
         id="g6589"
         clip-path="url(#clipPath6593)"><text
           transform="matrix(1,0,0,-1,586.22,27.264)"
           style="font-variant:normal;font-weight:normal;font-size:18px;font-family:'Cambria Math';-inkscape-font-specification:'Cambria Math';writing-mode:lr-tb;fill:#000000;fill-opacity:1;fill-rule:nonzero;stroke:none"
           id="text6597"><tspan
             x="0"
             y="0"
             id="tspan6595">풙</tspan></text>
</g></g><g
       id="g6599"><g
         id="g6601"
         clip-path="url(#clipPath6605)"><text
           transform="matrix(1,0,0,-1,596.66,23.544)"
           style="font-variant:normal;font-weight:normal;font-size:13.19999981px;font-family:'Cambria Math';-inkscape-font-specification:'Cambria Math';writing-mode:lr-tb;fill:#000000;fill-opacity:1;fill-rule:nonzero;stroke:none"
           id="text6609"><tspan
             x="0"
             y="0"
             id="tspan6607">2</tspan></text>
</g></g><g
       id="g6611"><g
         id="g6613"
         clip-path="url(#clipPath6617)"><text
           transform="matrix(1,0,0,-1,753.07,27.264)"
           style="font-variant:normal;font-weight:normal;font-size:18px;font-family:'Cambria Math';-inkscape-font-specification:'Cambria Math';writing-mode:lr-tb;fill:#000000;fill-opacity:1;fill-rule:nonzero;stroke:none"
           id="text6621"><tspan
             x="0"
             y="0"
             id="tspan6619">풙</tspan></text>
</g></g><g
       id="g6623"><g
         id="g6625"
         clip-path="url(#clipPath6629)"><text
           transform="matrix(1,0,0,-1,763.51,23.544)"
           style="font-variant:normal;font-weight:normal;font-size:13.19999981px;font-family:'Cambria Math';-inkscape-font-specification:'Cambria Math';writing-mode:lr-tb;fill:#000000;fill-opacity:1;fill-rule:nonzero;stroke:none"
           id="text6633"><tspan
             x="0"
             y="0"
             id="tspan6631">3</tspan></text>
</g></g><g
       id="g6635"><g
         id="g6637"
         clip-path="url(#clipPath6641)"><text
           transform="matrix(1,0,0,-1,919.92,27.696)"
           style="font-variant:normal;font-weight:normal;font-size:18px;font-family:'Cambria Math';-inkscape-font-specification:'Cambria Math';writing-mode:lr-tb;fill:#000000;fill-opacity:1;fill-rule:nonzero;stroke:none"
           id="text6645"><tspan
             x="0"
             y="0"
             id="tspan6643">풙</tspan></text>
</g></g><g
       id="g6647"><g
         id="g6649"
         clip-path="url(#clipPath6653)"><text
           transform="matrix(1,0,0,-1,930.36,23.976)"
           style="font-variant:normal;font-weight:normal;font-size:13.19999981px;font-family:'Cambria Math';-inkscape-font-specification:'Cambria Math';writing-mode:lr-tb;fill:#000000;fill-opacity:1;fill-rule:nonzero;stroke:none"
           id="text6657"><tspan
             x="0"
             y="0"
             id="tspan6655">4</tspan></text>
</g></g><g
       id="g6659"><g
         id="g6661"
         clip-path="url(#clipPath6665)"><text
           transform="matrix(1,0,0,-1,1086.74,27.696)"
           style="font-variant:normal;font-weight:normal;font-size:18px;font-family:'Cambria Math';-inkscape-font-specification:'Cambria Math';writing-mode:lr-tb;fill:#000000;fill-opacity:1;fill-rule:nonzero;stroke:none"
           id="text6669"><tspan
             x="0"
             y="0"
             id="tspan6667">풙</tspan></text>
</g></g><g
       id="g6671"><g
         id="g6673"
         clip-path="url(#clipPath6677)"><text
           transform="matrix(1,0,0,-1,1097.18,23.976)"
           style="font-variant:normal;font-weight:normal;font-size:13.19999981px;font-family:'Cambria Math';-inkscape-font-specification:'Cambria Math';writing-mode:lr-tb;fill:#000000;fill-opacity:1;fill-rule:nonzero;stroke:none"
           id="text6681"><tspan
             x="0"
             y="0"
             id="tspan6679">5</tspan></text>
</g></g><g
       id="g6683"><g
         id="g6685"
         clip-path="url(#clipPath6689)"><text
           transform="matrix(1,0,0,-1,384.12,412.7)"
           style="font-variant:normal;font-weight:normal;font-size:18px;font-family:'Cambria Math';-inkscape-font-specification:'Cambria Math';writing-mode:lr-tb;fill:#000000;fill-opacity:1;fill-rule:nonzero;stroke:none"
           id="text6693"><tspan
             x="0"
             y="0"
             id="tspan6691">풚</tspan></text>
</g></g><g
       id="g6695"><g
         id="g6697"
         clip-path="url(#clipPath6701)"><text
           transform="matrix(1,0,0,-1,394.56,408.98)"
           style="font-variant:normal;font-weight:normal;font-size:13.19999981px;font-family:'Cambria Math';-inkscape-font-specification:'Cambria Math';writing-mode:lr-tb;fill:#000000;fill-opacity:1;fill-rule:nonzero;stroke:none"
           id="text6705"><tspan
             x="0"
             y="0"
             id="tspan6703">1</tspan></text>
</g></g><g
       id="g6707"><g
         id="g6709"
         clip-path="url(#clipPath6713)"><text
           transform="matrix(1,0,0,-1,551.47,412.7)"
           style="font-variant:normal;font-weight:normal;font-size:18px;font-family:'Cambria Math';-inkscape-font-specification:'Cambria Math';writing-mode:lr-tb;fill:#000000;fill-opacity:1;fill-rule:nonzero;stroke:none"
           id="text6717"><tspan
             x="0"
             y="0"
             id="tspan6715">풚</tspan></text>
</g></g><g
       id="g6719"><g
         id="g6721"
         clip-path="url(#clipPath6725)"><text
           transform="matrix(1,0,0,-1,562.27,408.98)"
           style="font-variant:normal;font-weight:normal;font-size:13.19999981px;font-family:'Cambria Math';-inkscape-font-specification:'Cambria Math';writing-mode:lr-tb;fill:#000000;fill-opacity:1;fill-rule:nonzero;stroke:none"
           id="text6729"><tspan
             x="0"
             y="0"
             id="tspan6727">2</tspan></text>
</g></g><g
       id="g6731"><g
         id="g6733"
         clip-path="url(#clipPath6737)"><text
           transform="matrix(1,0,0,-1,718.3,412.7)"
           style="font-variant:normal;font-weight:normal;font-size:18px;font-family:'Cambria Math';-inkscape-font-specification:'Cambria Math';writing-mode:lr-tb;fill:#000000;fill-opacity:1;fill-rule:nonzero;stroke:none"
           id="text6741"><tspan
             x="0"
             y="0"
             id="tspan6739">풚</tspan></text>
</g></g><g
       id="g6743"><g
         id="g6745"
         clip-path="url(#clipPath6749)"><text
           transform="matrix(1,0,0,-1,729.1,408.98)"
           style="font-variant:normal;font-weight:normal;font-size:13.19999981px;font-family:'Cambria Math';-inkscape-font-specification:'Cambria Math';writing-mode:lr-tb;fill:#000000;fill-opacity:1;fill-rule:nonzero;stroke:none"
           id="text6753"><tspan
             x="0"
             y="0"
             id="tspan6751">3</tspan></text>
</g></g><g
       id="g6755"><g
         id="g6757"
         clip-path="url(#clipPath6761)"><text
           transform="matrix(1,0,0,-1,885.14,413.14)"
           style="font-variant:normal;font-weight:normal;font-size:18.02400017px;font-family:'Cambria Math';-inkscape-font-specification:'Cambria Math';writing-mode:lr-tb;fill:#000000;fill-opacity:1;fill-rule:nonzero;stroke:none"
           id="text6765"><tspan
             x="0"
             y="0"
             id="tspan6763">풚</tspan></text>
</g></g><g
       id="g6767"><g
         id="g6769"
         clip-path="url(#clipPath6773)"><text
           transform="matrix(1,0,0,-1,895.94,409.39)"
           style="font-variant:normal;font-weight:normal;font-size:13.19999981px;font-family:'Cambria Math';-inkscape-font-specification:'Cambria Math';writing-mode:lr-tb;fill:#000000;fill-opacity:1;fill-rule:nonzero;stroke:none"
           id="text6777"><tspan
             x="0"
             y="0"
             id="tspan6775">4</tspan></text>
</g></g><g
       id="g6779"><g
         id="g6781"
         clip-path="url(#clipPath6785)"><text
           transform="matrix(1,0,0,-1,1051.99,413.14)"
           style="font-variant:normal;font-weight:normal;font-size:18.02400017px;font-family:'Cambria Math';-inkscape-font-specification:'Cambria Math';writing-mode:lr-tb;fill:#000000;fill-opacity:1;fill-rule:nonzero;stroke:none"
           id="text6789"><tspan
             x="0"
             y="0"
             id="tspan6787">풚</tspan></text>
</g></g><g
       id="g6791"><g
         id="g6793"
         clip-path="url(#clipPath6797)"><text
           transform="matrix(1,0,0,-1,1062.79,409.39)"
           style="font-variant:normal;font-weight:normal;font-size:13.19999981px;font-family:'Cambria Math';-inkscape-font-specification:'Cambria Math';writing-mode:lr-tb;fill:#000000;fill-opacity:1;fill-rule:nonzero;stroke:none"
           id="text6801"><tspan
             x="0"
             y="0"
             id="tspan6799">5</tspan></text>
</g></g></g></svg>