<?xml version="1.0" encoding="UTF-8" standalone="no"?>
<!-- Created with Inkscape (http://www.inkscape.org/) -->

<svg
   xmlns:dc="http://purl.org/dc/elements/1.1/"
   xmlns:cc="http://creativecommons.org/ns#"
   xmlns:rdf="http://www.w3.org/1999/02/22-rdf-syntax-ns#"
   xmlns:svg="http://www.w3.org/2000/svg"
   xmlns="http://www.w3.org/2000/svg"
   xmlns:sodipodi="http://sodipodi.sourceforge.net/DTD/sodipodi-0.dtd"
   xmlns:inkscape="http://www.inkscape.org/namespaces/inkscape"
   version="1.1"
   id="svg6215"
   xml:space="preserve"
   width="1733.84"
   height="243.61867"
   viewBox="0 0 1733.84 243.61867"
   sodipodi:docname="encoderdecoder.svg"
   inkscape:version="0.92.3 (2405546, 2018-03-11)"><metadata
     id="metadata6221"><rdf:RDF><cc:Work
         rdf:about=""><dc:format>image/svg+xml</dc:format><dc:type
           rdf:resource="http://purl.org/dc/dcmitype/StillImage" /><dc:title></dc:title></cc:Work></rdf:RDF></metadata><defs
     id="defs6219"><clipPath
       clipPathUnits="userSpaceOnUse"
       id="clipPath6231"><path
         d="M 0,1.2207e-4 H 1872 V 540.00012 H 0 Z"
         id="path6229"
         inkscape:connector-curvature="0"
         style="clip-rule:evenodd" /></clipPath><clipPath
       clipPathUnits="userSpaceOnUse"
       id="clipPath6247"><path
         d="M 0,540 H 1872 V 6.1035e-5 H 0"
         id="path6245"
         inkscape:connector-curvature="0"
         style="clip-rule:evenodd" /></clipPath><clipPath
       clipPathUnits="userSpaceOnUse"
       id="clipPath6263"><path
         d="M -3.0518e-5,540 H 1872 V 6.1035e-5 H -3.0518e-5"
         id="path6261"
         inkscape:connector-curvature="0"
         style="clip-rule:evenodd" /></clipPath><clipPath
       clipPathUnits="userSpaceOnUse"
       id="clipPath6279"><path
         d="M 6.1035e-5,540 H 1872 V 6.1035e-5 H 0"
         id="path6277"
         inkscape:connector-curvature="0"
         style="clip-rule:evenodd" /></clipPath><clipPath
       clipPathUnits="userSpaceOnUse"
       id="clipPath6295"><path
         d="M 0,540 H 1872 V 6.1035e-5 H 0"
         id="path6293"
         inkscape:connector-curvature="0"
         style="clip-rule:evenodd" /></clipPath><clipPath
       clipPathUnits="userSpaceOnUse"
       id="clipPath6311"><path
         d="M -1.2207e-4,540 H 1872 V 6.1035e-5 H 0"
         id="path6309"
         inkscape:connector-curvature="0"
         style="clip-rule:evenodd" /></clipPath><clipPath
       clipPathUnits="userSpaceOnUse"
       id="clipPath6327"><path
         d="M -6.1035e-5,540 H 1872 V 6.1035e-5 H 0"
         id="path6325"
         inkscape:connector-curvature="0"
         style="clip-rule:evenodd" /></clipPath><clipPath
       clipPathUnits="userSpaceOnUse"
       id="clipPath6343"><path
         d="M -1.2207e-4,540 H 1872 V 6.1035e-5 H -1.2207e-4"
         id="path6341"
         inkscape:connector-curvature="0"
         style="clip-rule:evenodd" /></clipPath><clipPath
       clipPathUnits="userSpaceOnUse"
       id="clipPath6359"><path
         d="M -1.2207e-4,540 H 1872 V 6.1035e-5 H -2.4414e-4"
         id="path6357"
         inkscape:connector-curvature="0"
         style="clip-rule:evenodd" /></clipPath></defs><sodipodi:namedview
     pagecolor="#ffffff"
     bordercolor="#666666"
     borderopacity="1"
     objecttolerance="10"
     gridtolerance="10"
     guidetolerance="10"
     inkscape:pageopacity="0"
     inkscape:pageshadow="2"
     inkscape:window-width="2400"
     inkscape:window-height="1284"
     id="namedview6217"
     showgrid="false"
     inkscape:zoom="0.13581731"
     inkscape:cx="978.80001"
     inkscape:cy="320.65867"
     inkscape:window-x="-9"
     inkscape:window-y="-9"
     inkscape:window-maximized="1"
     inkscape:current-layer="g6227" /><g
     id="g6223"
     inkscape:groupmode="layer"
     inkscape:label="w8"
     transform="matrix(1.3333333,0,0,-1.3333333,-269.19999,282.95999)"><g
       id="g6225"><g
         id="g6227"
         clip-path="url(#clipPath6231)" /></g><path
       d="m 253.92,151.22 c 0,8.54 6.92,15.46 15.46,15.46 h 61.84 c 8.54,0 15.46,-6.92 15.46,-15.46 V 89.38 c 0,-8.538 -6.92,-15.46 -15.46,-15.46 h -61.84 c -8.54,0 -15.46,6.922 -15.46,15.46 z"
       style="fill:#fbe5d6;fill-opacity:1;fill-rule:evenodd;stroke:none"
       id="path6235"
       inkscape:connector-curvature="0" /><path
       d="m 253.92,151.22 c 0,8.54 6.92,15.46 15.46,15.46 h 61.84 c 8.54,0 15.46,-6.92 15.46,-15.46 V 89.38 c 0,-8.538 -6.92,-15.46 -15.46,-15.46 h -61.84 c -8.54,0 -15.46,6.922 -15.46,15.46 z"
       style="fill:none;stroke:#41719c;stroke-width:0.95999998;stroke-linecap:butt;stroke-linejoin:miter;stroke-miterlimit:10;stroke-dasharray:none;stroke-opacity:1"
       id="path6237"
       inkscape:connector-curvature="0" /><path
       d="M 301.2,29.506 V 55.66 h -1.56 V 29.506 Z m 2.22,25.154 -3,6 -3,-6 z"
       style="fill:#000000;fill-opacity:1;fill-rule:nonzero;stroke:none"
       id="path6239"
       inkscape:connector-curvature="0" /><g
       id="g6241"><g
         id="g6243"
         clip-path="url(#clipPath6247)"><path
           d="m 201.9,116.4 h 26.15 v 1.56 H 201.9 Z m 25.15,-2.22 6,3 -6,3 z"
           style="fill:#000000;fill-opacity:1;fill-rule:nonzero;stroke:none"
           id="path6249"
           inkscape:connector-curvature="0" /></g></g><path
       d="m 419.76,151.22 c 0,8.54 6.92,15.46 15.46,15.46 h 61.84 c 8.54,0 15.46,-6.92 15.46,-15.46 V 89.38 c 0,-8.538 -6.92,-15.46 -15.46,-15.46 h -61.84 c -8.54,0 -15.46,6.922 -15.46,15.46 z"
       style="fill:#fbe5d6;fill-opacity:1;fill-rule:evenodd;stroke:none"
       id="path6251"
       inkscape:connector-curvature="0" /><path
       d="m 419.76,151.22 c 0,8.54 6.92,15.46 15.46,15.46 h 61.84 c 8.54,0 15.46,-6.92 15.46,-15.46 V 89.38 c 0,-8.538 -6.92,-15.46 -15.46,-15.46 h -61.84 c -8.54,0 -15.46,6.922 -15.46,15.46 z"
       style="fill:none;stroke:#41719c;stroke-width:0.95999998;stroke-linecap:butt;stroke-linejoin:miter;stroke-miterlimit:10;stroke-dasharray:none;stroke-opacity:1"
       id="path6253"
       inkscape:connector-curvature="0" /><path
       d="M 466.92,29.506 V 55.66 h -1.56 V 29.506 Z m 2.22,25.154 -3,6 -3,-6 z"
       style="fill:#000000;fill-opacity:1;fill-rule:nonzero;stroke:none"
       id="path6255"
       inkscape:connector-curvature="0" /><g
       id="g6257"><g
         id="g6259"
         clip-path="url(#clipPath6263)"><path
           d="m 367.74,116.4 h 26.15 v 1.56 h -26.15 z m 25.15,-2.22 6,3 -6,3 z"
           style="fill:#000000;fill-opacity:1;fill-rule:nonzero;stroke:none"
           id="path6265"
           inkscape:connector-curvature="0" /></g></g><path
       d="m 911.64,151.22 c 0,8.54 6.92,15.46 15.46,15.46 h 61.84 c 8.54,0 15.46,-6.92 15.46,-15.46 V 89.38 c 0,-8.538 -6.92,-15.46 -15.46,-15.46 H 927.1 c -8.54,0 -15.46,6.922 -15.46,15.46 z"
       style="fill:#e2f0d9;fill-opacity:1;fill-rule:evenodd;stroke:none"
       id="path6267"
       inkscape:connector-curvature="0" /><path
       d="m 911.64,151.22 c 0,8.54 6.92,15.46 15.46,15.46 h 61.84 c 8.54,0 15.46,-6.92 15.46,-15.46 V 89.38 c 0,-8.538 -6.92,-15.46 -15.46,-15.46 H 927.1 c -8.54,0 -15.46,6.922 -15.46,15.46 z"
       style="fill:none;stroke:#41719c;stroke-width:0.95999998;stroke-linecap:butt;stroke-linejoin:miter;stroke-miterlimit:10;stroke-dasharray:none;stroke-opacity:1"
       id="path6269"
       inkscape:connector-curvature="0" /><path
       d="m 958.08,181.07 v 26.15 h -1.56 v -26.15 z m 2.22,25.15 -3,6 -3,-6 z"
       style="fill:#000000;fill-opacity:1;fill-rule:nonzero;stroke:none"
       id="path6271"
       inkscape:connector-curvature="0" /><g
       id="g6273"><g
         id="g6275"
         clip-path="url(#clipPath6279)"><path
           d="m 861.78,116.4 h 26.15 v 1.56 h -26.15 z m 25.15,-2.22 6,3 -6,3 z"
           style="fill:#000000;fill-opacity:1;fill-rule:nonzero;stroke:none"
           id="path6281"
           inkscape:connector-curvature="0" /></g></g><path
       d="m 1077.36,151.22 c 0,8.54 6.92,15.46 15.46,15.46 h 61.84 c 8.54,0 15.46,-6.92 15.46,-15.46 V 89.38 c 0,-8.538 -6.92,-15.46 -15.46,-15.46 h -61.84 c -8.54,0 -15.46,6.922 -15.46,15.46 z"
       style="fill:#e2f0d9;fill-opacity:1;fill-rule:evenodd;stroke:none"
       id="path6283"
       inkscape:connector-curvature="0" /><path
       d="m 1077.36,151.22 c 0,8.54 6.92,15.46 15.46,15.46 h 61.84 c 8.54,0 15.46,-6.92 15.46,-15.46 V 89.38 c 0,-8.538 -6.92,-15.46 -15.46,-15.46 h -61.84 c -8.54,0 -15.46,6.922 -15.46,15.46 z"
       style="fill:none;stroke:#41719c;stroke-width:0.95999998;stroke-linecap:butt;stroke-linejoin:miter;stroke-miterlimit:10;stroke-dasharray:none;stroke-opacity:1"
       id="path6285"
       inkscape:connector-curvature="0" /><path
       d="m 1123.8,181.07 v 26.15 h -1.56 v -26.15 z m 2.22,25.15 -3,6 -3,-6 z"
       style="fill:#000000;fill-opacity:1;fill-rule:nonzero;stroke:none"
       id="path6287"
       inkscape:connector-curvature="0" /><g
       id="g6289"><g
         id="g6291"
         clip-path="url(#clipPath6295)"><path
           d="m 1025.34,116.4 h 26.15 v 1.56 h -26.15 z m 25.15,-2.22 6,3 -6,3 z"
           style="fill:#000000;fill-opacity:1;fill-rule:nonzero;stroke:none"
           id="path6297"
           inkscape:connector-curvature="0" /></g></g><path
       d="m 1243.2,151.22 c 0,8.54 6.92,15.46 15.46,15.46 h 61.84 c 8.54,0 15.46,-6.92 15.46,-15.46 V 89.38 c 0,-8.538 -6.92,-15.46 -15.46,-15.46 h -61.84 c -8.54,0 -15.46,6.922 -15.46,15.46 z"
       style="fill:#e2f0d9;fill-opacity:1;fill-rule:evenodd;stroke:none"
       id="path6299"
       inkscape:connector-curvature="0" /><path
       d="m 1243.2,151.22 c 0,8.54 6.92,15.46 15.46,15.46 h 61.84 c 8.54,0 15.46,-6.92 15.46,-15.46 V 89.38 c 0,-8.538 -6.92,-15.46 -15.46,-15.46 h -61.84 c -8.54,0 -15.46,6.922 -15.46,15.46 z"
       style="fill:none;stroke:#41719c;stroke-width:0.95999998;stroke-linecap:butt;stroke-linejoin:miter;stroke-miterlimit:10;stroke-dasharray:none;stroke-opacity:1"
       id="path6301"
       inkscape:connector-curvature="0" /><path
       d="m 1289.64,181.07 v 26.15 h -1.56 v -26.15 z m 2.22,25.15 -3,6 -3,-6 z"
       style="fill:#000000;fill-opacity:1;fill-rule:nonzero;stroke:none"
       id="path6303"
       inkscape:connector-curvature="0" /><g
       id="g6305"><g
         id="g6307"
         clip-path="url(#clipPath6311)"><path
           d="m 1191.18,116.4 h 26.15 v 1.56 h -26.15 z m 25.15,-2.22 6,3 -6,3 z"
           style="fill:#000000;fill-opacity:1;fill-rule:nonzero;stroke:none"
           id="path6313"
           inkscape:connector-curvature="0" /></g></g><path
       d="m 585.48,151.22 c 0,8.54 6.92,15.46 15.46,15.46 h 61.84 c 8.54,0 15.46,-6.92 15.46,-15.46 V 89.38 c 0,-8.538 -6.92,-15.46 -15.46,-15.46 h -61.84 c -8.54,0 -15.46,6.922 -15.46,15.46 z"
       style="fill:#fbe5d6;fill-opacity:1;fill-rule:evenodd;stroke:none"
       id="path6315"
       inkscape:connector-curvature="0" /><path
       d="m 585.48,151.22 c 0,8.54 6.92,15.46 15.46,15.46 h 61.84 c 8.54,0 15.46,-6.92 15.46,-15.46 V 89.38 c 0,-8.538 -6.92,-15.46 -15.46,-15.46 h -61.84 c -8.54,0 -15.46,6.922 -15.46,15.46 z"
       style="fill:none;stroke:#41719c;stroke-width:0.95999998;stroke-linecap:butt;stroke-linejoin:miter;stroke-miterlimit:10;stroke-dasharray:none;stroke-opacity:1"
       id="path6317"
       inkscape:connector-curvature="0" /><path
       d="M 632.76,29.506 V 55.66 H 631.2 V 29.506 Z m 2.22,25.154 -3,6 -3,-6 z"
       style="fill:#000000;fill-opacity:1;fill-rule:nonzero;stroke:none"
       id="path6319"
       inkscape:connector-curvature="0" /><g
       id="g6321"><g
         id="g6323"
         clip-path="url(#clipPath6327)"><path
           d="m 533.46,116.4 h 26.15 v 1.56 h -26.15 z m 25.15,-2.22 6,3 -6,3 z"
           style="fill:#000000;fill-opacity:1;fill-rule:nonzero;stroke:none"
           id="path6329"
           inkscape:connector-curvature="0" /></g></g><path
       d="m 751.32,151.22 c 0,8.54 6.92,15.46 15.46,15.46 h 61.84 c 8.54,0 15.46,-6.92 15.46,-15.46 V 89.38 c 0,-8.538 -6.92,-15.46 -15.46,-15.46 h -61.84 c -8.54,0 -15.46,6.922 -15.46,15.46 z"
       style="fill:#fbe5d6;fill-opacity:1;fill-rule:evenodd;stroke:none"
       id="path6331"
       inkscape:connector-curvature="0" /><path
       d="m 751.32,151.22 c 0,8.54 6.92,15.46 15.46,15.46 h 61.84 c 8.54,0 15.46,-6.92 15.46,-15.46 V 89.38 c 0,-8.538 -6.92,-15.46 -15.46,-15.46 h -61.84 c -8.54,0 -15.46,6.922 -15.46,15.46 z"
       style="fill:none;stroke:#41719c;stroke-width:0.95999998;stroke-linecap:butt;stroke-linejoin:miter;stroke-miterlimit:10;stroke-dasharray:none;stroke-opacity:1"
       id="path6333"
       inkscape:connector-curvature="0" /><path
       d="M 798.48,29.506 V 55.66 h -1.56 V 29.506 Z m 2.22,25.154 -3,6 -3,-6 z"
       style="fill:#000000;fill-opacity:1;fill-rule:nonzero;stroke:none"
       id="path6335"
       inkscape:connector-curvature="0" /><g
       id="g6337"><g
         id="g6339"
         clip-path="url(#clipPath6343)"><path
           d="m 699.3,116.4 h 26.15 v 1.56 H 699.3 Z m 25.15,-2.22 6,3 -6,3 z"
           style="fill:#000000;fill-opacity:1;fill-rule:nonzero;stroke:none"
           id="path6345"
           inkscape:connector-curvature="0" /></g></g><path
       d="m 1408.92,151.22 c 0,8.54 6.92,15.46 15.46,15.46 h 61.96 c 8.54,0 15.46,-6.92 15.46,-15.46 V 89.38 c 0,-8.538 -6.92,-15.46 -15.46,-15.46 h -61.96 c -8.54,0 -15.46,6.922 -15.46,15.46 z"
       style="fill:#e2f0d9;fill-opacity:1;fill-rule:evenodd;stroke:none"
       id="path6347"
       inkscape:connector-curvature="0" /><path
       d="m 1408.92,151.22 c 0,8.54 6.92,15.46 15.46,15.46 h 61.96 c 8.54,0 15.46,-6.92 15.46,-15.46 V 89.38 c 0,-8.538 -6.92,-15.46 -15.46,-15.46 h -61.96 c -8.54,0 -15.46,6.922 -15.46,15.46 z"
       style="fill:none;stroke:#41719c;stroke-width:0.95999998;stroke-linecap:butt;stroke-linejoin:miter;stroke-miterlimit:10;stroke-dasharray:none;stroke-opacity:1"
       id="path6349"
       inkscape:connector-curvature="0" /><path
       d="m 1455.36,181.07 v 26.15 h -1.56 v -26.15 z m 2.22,25.15 -3,6 -3,-6 z"
       style="fill:#000000;fill-opacity:1;fill-rule:nonzero;stroke:none"
       id="path6351"
       inkscape:connector-curvature="0" /><g
       id="g6353"><g
         id="g6355"
         clip-path="url(#clipPath6359)"><path
           d="m 1356.9,116.4 h 26.15 v 1.56 h -26.15 z m 25.15,-2.22 6,3 -6,3 z"
           style="fill:#000000;fill-opacity:1;fill-rule:nonzero;stroke:none"
           id="path6361"
           inkscape:connector-curvature="0" /></g></g></g></svg>