<?xml version="1.0" encoding="UTF-8" standalone="no"?>
<!-- Created with Inkscape (http://www.inkscape.org/) -->

<svg
   xmlns:dc="http://purl.org/dc/elements/1.1/"
   xmlns:cc="http://creativecommons.org/ns#"
   xmlns:rdf="http://www.w3.org/1999/02/22-rdf-syntax-ns#"
   xmlns:svg="http://www.w3.org/2000/svg"
   xmlns="http://www.w3.org/2000/svg"
   xmlns:sodipodi="http://sodipodi.sourceforge.net/DTD/sodipodi-0.dtd"
   xmlns:inkscape="http://www.inkscape.org/namespaces/inkscape"
   version="1.1"
   id="svg10"
   xml:space="preserve"
   width="1307.0399"
   height="364.73865"
   viewBox="0 0 1307.0399 364.73865"
   sodipodi:docname="hierarchical.svg"
   inkscape:version="0.92.3 (2405546, 2018-03-11)"><metadata
     id="metadata16"><rdf:RDF><cc:Work
         rdf:about=""><dc:format>image/svg+xml</dc:format><dc:type
           rdf:resource="http://purl.org/dc/dcmitype/StillImage" /><dc:title></dc:title></cc:Work></rdf:RDF></metadata><defs
     id="defs14"><clipPath
       clipPathUnits="userSpaceOnUse"
       id="clipPath26"><path
         d="M 0,1.2207e-4 H 1872 V 540.00012 H 0 Z"
         id="path24"
         inkscape:connector-curvature="0"
         style="clip-rule:evenodd" /></clipPath><clipPath
       clipPathUnits="userSpaceOnUse"
       id="clipPath54"><path
         d="M 1.5259e-5,540 H 1872 V 1.2207e-4 L 1.5259e-5,6.1035e-5"
         id="path52"
         inkscape:connector-curvature="0"
         style="clip-rule:evenodd" /></clipPath><clipPath
       clipPathUnits="userSpaceOnUse"
       id="clipPath70"><path
         d="M 0,540 H 1872 V 1.2207e-4 L 0,6.1035e-5"
         id="path68"
         inkscape:connector-curvature="0"
         style="clip-rule:evenodd" /></clipPath><clipPath
       clipPathUnits="userSpaceOnUse"
       id="clipPath92"><path
         d="M 0,540 H 1872 V 1.2207e-4 L 0,6.1035e-5"
         id="path90"
         inkscape:connector-curvature="0"
         style="clip-rule:evenodd" /></clipPath><clipPath
       clipPathUnits="userSpaceOnUse"
       id="clipPath108"><path
         d="M 0,540 H 1872 V 1.2207e-4 L 0,6.1035e-5"
         id="path106"
         inkscape:connector-curvature="0"
         style="clip-rule:evenodd" /></clipPath><clipPath
       clipPathUnits="userSpaceOnUse"
       id="clipPath130"><path
         d="M 0,540 H 1872 V 1.2207e-4 L 0,6.1035e-5"
         id="path128"
         inkscape:connector-curvature="0"
         style="clip-rule:evenodd" /></clipPath><clipPath
       clipPathUnits="userSpaceOnUse"
       id="clipPath146"><path
         d="M 0,540 H 1872 V 1.2207e-4 L 0,6.1035e-5"
         id="path144"
         inkscape:connector-curvature="0"
         style="clip-rule:evenodd" /></clipPath></defs><sodipodi:namedview
     pagecolor="#ffffff"
     bordercolor="#666666"
     borderopacity="1"
     objecttolerance="10"
     gridtolerance="10"
     guidetolerance="10"
     inkscape:pageopacity="0"
     inkscape:pageshadow="2"
     inkscape:window-width="1920"
     inkscape:window-height="1013"
     id="namedview12"
     showgrid="false"
     inkscape:zoom="0.69110577"
     inkscape:cx="1066.72"
     inkscape:cy="286.09867"
     inkscape:window-x="-9"
     inkscape:window-y="-9"
     inkscape:window-maximized="1"
     inkscape:current-layer="g20" /><g
     id="g18"
     inkscape:groupmode="layer"
     inkscape:label="w8"
     transform="matrix(1.3333333,0,0,-1.3333333,-181.28,438.63999)"><g
       id="g20" /><path
       d="m 136.44,138.42 c 0,4.27 3.47,7.74 7.74,7.74 h 30.96 c 4.27,0 7.74,-3.47 7.74,-7.74 v -30.96 c 0,-4.27 -3.47,-7.74 -7.74,-7.74 h -30.96 c -4.27,0 -7.74,3.47 -7.74,7.74 z"
       style="fill:#fbe5d6;fill-opacity:1;fill-rule:evenodd;stroke:none"
       id="path30"
       inkscape:connector-curvature="0" /><path
       d="m 136.44,138.42 c 0,4.27 3.47,7.74 7.74,7.74 h 30.96 c 4.27,0 7.74,-3.47 7.74,-7.74 v -30.96 c 0,-4.27 -3.47,-7.74 -7.74,-7.74 h -30.96 c -4.27,0 -7.74,3.47 -7.74,7.74 z"
       style="fill:none;stroke:#41719c;stroke-width:0.95999998;stroke-linecap:butt;stroke-linejoin:miter;stroke-miterlimit:10;stroke-dasharray:none;stroke-opacity:1"
       id="path32"
       inkscape:connector-curvature="0" /><path
       d="M 159.72,55.426 V 81.58 h -1.56 V 55.426 Z m 2.22,25.154 -3,6 -3,-6 z"
       style="fill:#000000;fill-opacity:1;fill-rule:nonzero;stroke:none"
       id="path34"
       inkscape:connector-curvature="0" /><path
       d="m 328.44,279.74 c 0,8.54 6.92,15.46 15.46,15.46 h 61.84 c 8.54,0 15.46,-6.92 15.46,-15.46 V 217.9 c 0,-8.54 -6.92,-15.46 -15.46,-15.46 H 343.9 c -8.54,0 -15.46,6.92 -15.46,15.46 z"
       style="fill:#e2f0d9;fill-opacity:1;fill-rule:evenodd;stroke:none"
       id="path36"
       inkscape:connector-curvature="0" /><path
       d="m 328.44,279.74 c 0,8.54 6.92,15.46 15.46,15.46 h 61.84 c 8.54,0 15.46,-6.92 15.46,-15.46 V 217.9 c 0,-8.54 -6.92,-15.46 -15.46,-15.46 H 343.9 c -8.54,0 -15.46,6.92 -15.46,15.46 z"
       style="fill:none;stroke:#41719c;stroke-width:0.95999998;stroke-linecap:butt;stroke-linejoin:miter;stroke-miterlimit:10;stroke-dasharray:none;stroke-opacity:1"
       id="path38"
       inkscape:connector-curvature="0" /><path
       d="m 466.86,243.84 h 141.08 v -1.56 H 466.86 Z m 140.08,2.22 6,-3 -6,-3 z"
       style="fill:#000000;fill-opacity:1;fill-rule:nonzero;stroke:none"
       id="path40"
       inkscape:connector-curvature="0" /><path
       d="m 245.16,138.42 c 0,4.27 3.47,7.74 7.74,7.74 h 30.96 c 4.27,0 7.74,-3.47 7.74,-7.74 v -30.96 c 0,-4.27 -3.47,-7.74 -7.74,-7.74 H 252.9 c -4.27,0 -7.74,3.47 -7.74,7.74 z"
       style="fill:#fbe5d6;fill-opacity:1;fill-rule:evenodd;stroke:none"
       id="path42"
       inkscape:connector-curvature="0" /><path
       d="m 245.16,138.42 c 0,4.27 3.47,7.74 7.74,7.74 h 30.96 c 4.27,0 7.74,-3.47 7.74,-7.74 v -30.96 c 0,-4.27 -3.47,-7.74 -7.74,-7.74 H 252.9 c -4.27,0 -7.74,3.47 -7.74,7.74 z"
       style="fill:none;stroke:#41719c;stroke-width:0.95999998;stroke-linecap:butt;stroke-linejoin:miter;stroke-miterlimit:10;stroke-dasharray:none;stroke-opacity:1"
       id="path44"
       inkscape:connector-curvature="0" /><path
       d="M 268.44,55.426 V 81.58 h -1.56 V 55.426 Z m 2.22,25.154 -3,6 -3,-6 z"
       style="fill:#000000;fill-opacity:1;fill-rule:nonzero;stroke:none"
       id="path46"
       inkscape:connector-curvature="0" /><g
       id="g48"><g
         id="g50"
         clip-path="url(#clipPath54)"><path
           d="m 198.54,123.6 h 26.15 v 1.56 h -26.15 z m 25.15,-2.22 6,3 -6,3 z"
           style="fill:#000000;fill-opacity:1;fill-rule:nonzero;stroke:none"
           id="path56"
           inkscape:connector-curvature="0" /></g></g><path
       d="m 351.72,138.44 c 0,4.26 3.46,7.72 7.72,7.72 h 30.88 c 4.26,0 7.72,-3.46 7.72,-7.72 v -31 c 0,-4.26 -3.46,-7.72 -7.72,-7.72 h -30.88 c -4.26,0 -7.72,3.46 -7.72,7.72 z"
       style="fill:#fbe5d6;fill-opacity:1;fill-rule:evenodd;stroke:none"
       id="path58"
       inkscape:connector-curvature="0" /><path
       d="m 351.72,138.44 c 0,4.26 3.46,7.72 7.72,7.72 h 30.88 c 4.26,0 7.72,-3.46 7.72,-7.72 v -31 c 0,-4.26 -3.46,-7.72 -7.72,-7.72 h -30.88 c -4.26,0 -7.72,3.46 -7.72,7.72 z"
       style="fill:none;stroke:#41719c;stroke-width:0.95999998;stroke-linecap:butt;stroke-linejoin:miter;stroke-miterlimit:10;stroke-dasharray:none;stroke-opacity:1"
       id="path60"
       inkscape:connector-curvature="0" /><path
       d="M 374.88,55.426 V 81.58 h -1.56 V 55.426 Z m 2.22,25.154 -3,6 -3,-6 z"
       style="fill:#000000;fill-opacity:1;fill-rule:nonzero;stroke:none"
       id="path62"
       inkscape:connector-curvature="0" /><g
       id="g64"><g
         id="g66"
         clip-path="url(#clipPath70)"><path
           d="m 304.98,123.6 h 26.15 v 1.56 h -26.15 z m 25.15,-2.22 6,3 -6,3 z"
           style="fill:#000000;fill-opacity:1;fill-rule:nonzero;stroke:none"
           id="path72"
           inkscape:connector-curvature="0" /></g></g><path
       d="m 466.8,138.42 c 0,4.27 3.47,7.74 7.74,7.74 h 30.96 c 4.27,0 7.74,-3.47 7.74,-7.74 v -30.96 c 0,-4.27 -3.47,-7.74 -7.74,-7.74 h -30.96 c -4.27,0 -7.74,3.47 -7.74,7.74 z"
       style="fill:#fbe5d6;fill-opacity:1;fill-rule:evenodd;stroke:none"
       id="path74"
       inkscape:connector-curvature="0" /><path
       d="m 466.8,138.42 c 0,4.27 3.47,7.74 7.74,7.74 h 30.96 c 4.27,0 7.74,-3.47 7.74,-7.74 v -30.96 c 0,-4.27 -3.47,-7.74 -7.74,-7.74 h -30.96 c -4.27,0 -7.74,3.47 -7.74,7.74 z"
       style="fill:none;stroke:#41719c;stroke-width:0.95999998;stroke-linecap:butt;stroke-linejoin:miter;stroke-miterlimit:10;stroke-dasharray:none;stroke-opacity:1"
       id="path76"
       inkscape:connector-curvature="0" /><path
       d="M 490.08,55.426 V 81.58 h -1.56 V 55.426 Z m 2.22,25.154 -3,6 -3,-6 z"
       style="fill:#000000;fill-opacity:1;fill-rule:nonzero;stroke:none"
       id="path78"
       inkscape:connector-curvature="0" /><path
       d="m 575.52,138.42 c 0,4.27 3.47,7.74 7.74,7.74 h 30.96 c 4.27,0 7.74,-3.47 7.74,-7.74 v -30.96 c 0,-4.27 -3.47,-7.74 -7.74,-7.74 h -30.96 c -4.27,0 -7.74,3.47 -7.74,7.74 z"
       style="fill:#fbe5d6;fill-opacity:1;fill-rule:evenodd;stroke:none"
       id="path80"
       inkscape:connector-curvature="0" /><path
       d="m 575.52,138.42 c 0,4.27 3.47,7.74 7.74,7.74 h 30.96 c 4.27,0 7.74,-3.47 7.74,-7.74 v -30.96 c 0,-4.27 -3.47,-7.74 -7.74,-7.74 h -30.96 c -4.27,0 -7.74,3.47 -7.74,7.74 z"
       style="fill:none;stroke:#41719c;stroke-width:0.95999998;stroke-linecap:butt;stroke-linejoin:miter;stroke-miterlimit:10;stroke-dasharray:none;stroke-opacity:1"
       id="path82"
       inkscape:connector-curvature="0" /><path
       d="M 598.8,55.426 V 81.58 h -1.56 V 55.426 Z m 2.22,25.154 -3,6 -3,-6 z"
       style="fill:#000000;fill-opacity:1;fill-rule:nonzero;stroke:none"
       id="path84"
       inkscape:connector-curvature="0" /><g
       id="g86"><g
         id="g88"
         clip-path="url(#clipPath92)"><path
           d="m 528.9,123.6 h 26.15 v 1.56 H 528.9 Z m 25.15,-2.22 6,3 -6,3 z"
           style="fill:#000000;fill-opacity:1;fill-rule:nonzero;stroke:none"
           id="path94"
           inkscape:connector-curvature="0" /></g></g><path
       d="m 682.08,138.44 c 0,4.26 3.46,7.72 7.72,7.72 h 30.88 c 4.26,0 7.72,-3.46 7.72,-7.72 v -31 c 0,-4.26 -3.46,-7.72 -7.72,-7.72 H 689.8 c -4.26,0 -7.72,3.46 -7.72,7.72 z"
       style="fill:#fbe5d6;fill-opacity:1;fill-rule:evenodd;stroke:none"
       id="path96"
       inkscape:connector-curvature="0" /><path
       d="m 682.08,138.44 c 0,4.26 3.46,7.72 7.72,7.72 h 30.88 c 4.26,0 7.72,-3.46 7.72,-7.72 v -31 c 0,-4.26 -3.46,-7.72 -7.72,-7.72 H 689.8 c -4.26,0 -7.72,3.46 -7.72,7.72 z"
       style="fill:none;stroke:#41719c;stroke-width:0.95999998;stroke-linecap:butt;stroke-linejoin:miter;stroke-miterlimit:10;stroke-dasharray:none;stroke-opacity:1"
       id="path98"
       inkscape:connector-curvature="0" /><path
       d="M 705.24,55.426 V 81.58 h -1.56 V 55.426 Z m 2.22,25.154 -3,6 -3,-6 z"
       style="fill:#000000;fill-opacity:1;fill-rule:nonzero;stroke:none"
       id="path100"
       inkscape:connector-curvature="0" /><g
       id="g102"><g
         id="g104"
         clip-path="url(#clipPath108)"><path
           d="m 635.34,123.6 h 26.15 v 1.56 h -26.15 z m 25.15,-2.22 6,3 -6,3 z"
           style="fill:#000000;fill-opacity:1;fill-rule:nonzero;stroke:none"
           id="path110"
           inkscape:connector-curvature="0" /></g></g><path
       d="m 831.84,139.88 c 0,4.26 3.46,7.72 7.72,7.72 h 30.88 c 4.26,0 7.72,-3.46 7.72,-7.72 v -31 c 0,-4.26 -3.46,-7.72 -7.72,-7.72 h -30.88 c -4.26,0 -7.72,3.46 -7.72,7.72 z"
       style="fill:#fbe5d6;fill-opacity:1;fill-rule:evenodd;stroke:none"
       id="path112"
       inkscape:connector-curvature="0" /><path
       d="m 831.84,139.88 c 0,4.26 3.46,7.72 7.72,7.72 h 30.88 c 4.26,0 7.72,-3.46 7.72,-7.72 v -31 c 0,-4.26 -3.46,-7.72 -7.72,-7.72 h -30.88 c -4.26,0 -7.72,3.46 -7.72,7.72 z"
       style="fill:none;stroke:#41719c;stroke-width:0.95999998;stroke-linecap:butt;stroke-linejoin:miter;stroke-miterlimit:10;stroke-dasharray:none;stroke-opacity:1"
       id="path114"
       inkscape:connector-curvature="0" /><path
       d="M 855,56.866 V 83.02 h -1.56 V 56.866 Z m 2.22,25.154 -3,6 -3,-6 z"
       style="fill:#000000;fill-opacity:1;fill-rule:nonzero;stroke:none"
       id="path116"
       inkscape:connector-curvature="0" /><path
       d="m 940.56,139.86 c 0,4.27 3.47,7.74 7.74,7.74 h 30.96 c 4.27,0 7.74,-3.47 7.74,-7.74 V 108.9 c 0,-4.27 -3.47,-7.74 -7.74,-7.74 H 948.3 c -4.27,0 -7.74,3.47 -7.74,7.74 z"
       style="fill:#fbe5d6;fill-opacity:1;fill-rule:evenodd;stroke:none"
       id="path118"
       inkscape:connector-curvature="0" /><path
       d="m 940.56,139.86 c 0,4.27 3.47,7.74 7.74,7.74 h 30.96 c 4.27,0 7.74,-3.47 7.74,-7.74 V 108.9 c 0,-4.27 -3.47,-7.74 -7.74,-7.74 H 948.3 c -4.27,0 -7.74,3.47 -7.74,7.74 z"
       style="fill:none;stroke:#41719c;stroke-width:0.95999998;stroke-linecap:butt;stroke-linejoin:miter;stroke-miterlimit:10;stroke-dasharray:none;stroke-opacity:1"
       id="path120"
       inkscape:connector-curvature="0" /><path
       d="M 963.84,56.866 V 83.02 h -1.56 V 56.866 Z m 2.22,25.154 -3,6 -3,-6 z"
       style="fill:#000000;fill-opacity:1;fill-rule:nonzero;stroke:none"
       id="path122"
       inkscape:connector-curvature="0" /><g
       id="g124"><g
         id="g126"
         clip-path="url(#clipPath130)"><path
           d="m 893.82,125.04 h 26.15 v 1.56 h -26.15 z m 25.15,-2.22 6,3 -6,3 z"
           style="fill:#000000;fill-opacity:1;fill-rule:nonzero;stroke:none"
           id="path132"
           inkscape:connector-curvature="0" /></g></g><path
       d="m 1047,139.86 c 0,4.27 3.47,7.74 7.74,7.74 h 30.96 c 4.27,0 7.74,-3.47 7.74,-7.74 V 108.9 c 0,-4.27 -3.47,-7.74 -7.74,-7.74 h -30.96 c -4.27,0 -7.74,3.47 -7.74,7.74 z"
       style="fill:#fbe5d6;fill-opacity:1;fill-rule:evenodd;stroke:none"
       id="path134"
       inkscape:connector-curvature="0" /><path
       d="m 1047,139.86 c 0,4.27 3.47,7.74 7.74,7.74 h 30.96 c 4.27,0 7.74,-3.47 7.74,-7.74 V 108.9 c 0,-4.27 -3.47,-7.74 -7.74,-7.74 h -30.96 c -4.27,0 -7.74,3.47 -7.74,7.74 z"
       style="fill:none;stroke:#41719c;stroke-width:0.95999998;stroke-linecap:butt;stroke-linejoin:miter;stroke-miterlimit:10;stroke-dasharray:none;stroke-opacity:1"
       id="path136"
       inkscape:connector-curvature="0" /><path
       d="M 1070.28,56.866 V 83.02 h -1.56 V 56.866 Z m 2.22,25.154 -3,6 -3,-6 z"
       style="fill:#000000;fill-opacity:1;fill-rule:nonzero;stroke:none"
       id="path138"
       inkscape:connector-curvature="0" /><g
       id="g140"><g
         id="g142"
         clip-path="url(#clipPath146)"><path
           d="m 1000.38,125.04 h 26.15 v 1.56 h -26.15 z m 25.15,-2.22 6,3 -6,3 z"
           style="fill:#000000;fill-opacity:1;fill-rule:nonzero;stroke:none"
           id="path148"
           inkscape:connector-curvature="0" /></g></g><path
       d="m 375,158.03 v 26.15 h -1.56 v -26.15 z m 2.22,25.15 -3,6 -3,-6 z"
       style="fill:#000000;fill-opacity:1;fill-rule:nonzero;stroke:none"
       id="path150"
       inkscape:connector-curvature="0" /><path
       d="m 658.08,276.38 c 0,8.54 6.92,15.46 15.46,15.46 h 61.84 c 8.54,0 15.46,-6.92 15.46,-15.46 v -61.84 c 0,-8.54 -6.92,-15.46 -15.46,-15.46 h -61.84 c -8.54,0 -15.46,6.92 -15.46,15.46 z"
       style="fill:#e2f0d9;fill-opacity:1;fill-rule:evenodd;stroke:none"
       id="path152"
       inkscape:connector-curvature="0" /><path
       d="m 658.08,276.38 c 0,8.54 6.92,15.46 15.46,15.46 h 61.84 c 8.54,0 15.46,-6.92 15.46,-15.46 v -61.84 c 0,-8.54 -6.92,-15.46 -15.46,-15.46 h -61.84 c -8.54,0 -15.46,6.92 -15.46,15.46 z"
       style="fill:none;stroke:#41719c;stroke-width:0.95999998;stroke-linecap:butt;stroke-linejoin:miter;stroke-miterlimit:10;stroke-dasharray:none;stroke-opacity:1"
       id="path154"
       inkscape:connector-curvature="0" /><path
       d="m 704.52,154.67 v 26.15 h -1.56 v -26.15 z m 2.22,25.15 -3,6 -3,-6 z"
       style="fill:#000000;fill-opacity:1;fill-rule:nonzero;stroke:none"
       id="path156"
       inkscape:connector-curvature="0" /><path
       d="m 1023,279.74 c 0,8.54 6.92,15.46 15.46,15.46 h 61.84 c 8.54,0 15.46,-6.92 15.46,-15.46 V 217.9 c 0,-8.54 -6.92,-15.46 -15.46,-15.46 h -61.84 c -8.54,0 -15.46,6.92 -15.46,15.46 z"
       style="fill:#e2f0d9;fill-opacity:1;fill-rule:evenodd;stroke:none"
       id="path158"
       inkscape:connector-curvature="0" /><path
       d="m 1023,279.74 c 0,8.54 6.92,15.46 15.46,15.46 h 61.84 c 8.54,0 15.46,-6.92 15.46,-15.46 V 217.9 c 0,-8.54 -6.92,-15.46 -15.46,-15.46 h -61.84 c -8.54,0 -15.46,6.92 -15.46,15.46 z"
       style="fill:none;stroke:#41719c;stroke-width:0.95999998;stroke-linecap:butt;stroke-linejoin:miter;stroke-miterlimit:10;stroke-dasharray:none;stroke-opacity:1"
       id="path160"
       inkscape:connector-curvature="0" /><path
       d="m 1069.56,158.03 v 26.15 H 1068 v -26.15 z m 2.22,25.15 -3,6 -3,-6 z"
       style="fill:#000000;fill-opacity:1;fill-rule:nonzero;stroke:none"
       id="path162"
       inkscape:connector-curvature="0" /><path
       d="m 805.98,243.84 h 141.08 v -1.56 H 805.98 Z m 140.08,2.22 6,-3 -6,-3 z"
       style="fill:#000000;fill-opacity:1;fill-rule:nonzero;stroke:none"
       id="path164"
       inkscape:connector-curvature="0" /><path
       d="m 1067.64,297.83 v 26.15 h -1.56 v -26.15 z m 2.22,25.15 -3,6 -3,-6 z"
       style="fill:#000000;fill-opacity:1;fill-rule:nonzero;stroke:none"
       id="path166"
       inkscape:connector-curvature="0" /></g></svg>