<?xml version="1.0" encoding="UTF-8" standalone="no"?>
<!-- Created with Inkscape (http://www.inkscape.org/) -->

<svg
   xmlns:dc="http://purl.org/dc/elements/1.1/"
   xmlns:cc="http://creativecommons.org/ns#"
   xmlns:rdf="http://www.w3.org/1999/02/22-rdf-syntax-ns#"
   xmlns:svg="http://www.w3.org/2000/svg"
   xmlns="http://www.w3.org/2000/svg"
   xmlns:sodipodi="http://sodipodi.sourceforge.net/DTD/sodipodi-0.dtd"
   xmlns:inkscape="http://www.inkscape.org/namespaces/inkscape"
   version="1.1"
   id="svg5922"
   xml:space="preserve"
   width="1066.16"
   height="383.69867"
   viewBox="0 0 1066.16 383.69867"
   sodipodi:docname="multilayer.svg"
   inkscape:version="0.92.3 (2405546, 2018-03-11)"><metadata
     id="metadata5928"><rdf:RDF><cc:Work
         rdf:about=""><dc:format>image/svg+xml</dc:format><dc:type
           rdf:resource="http://purl.org/dc/dcmitype/StillImage" /><dc:title></dc:title></cc:Work></rdf:RDF></metadata><defs
     id="defs5926"><clipPath
       clipPathUnits="userSpaceOnUse"
       id="clipPath5938"><path
         d="M 0,1.2207e-4 H 1872 V 540.00012 H 0 Z"
         id="path5936"
         inkscape:connector-curvature="0"
         style="clip-rule:evenodd" /></clipPath><clipPath
       clipPathUnits="userSpaceOnUse"
       id="clipPath5954"><path
         d="M -3.0518e-5,540 H 1872 V 6.1035e-5 H 0"
         id="path5952"
         inkscape:connector-curvature="0"
         style="clip-rule:evenodd" /></clipPath><clipPath
       clipPathUnits="userSpaceOnUse"
       id="clipPath5970"><path
         d="M 0,540 H 1872 V 6.1035e-5 H 0"
         id="path5968"
         inkscape:connector-curvature="0"
         style="clip-rule:evenodd" /></clipPath><clipPath
       clipPathUnits="userSpaceOnUse"
       id="clipPath5986"><path
         d="M -1.2207e-4,540 H 1872 V 6.1035e-5 H -6.1035e-5"
         id="path5984"
         inkscape:connector-curvature="0"
         style="clip-rule:evenodd" /></clipPath><clipPath
       clipPathUnits="userSpaceOnUse"
       id="clipPath6002"><path
         d="M -3.0518e-5,540 H 1872 V 1.2207e-4 H 0"
         id="path6000"
         inkscape:connector-curvature="0"
         style="clip-rule:evenodd" /></clipPath><clipPath
       clipPathUnits="userSpaceOnUse"
       id="clipPath6018"><path
         d="M 0,540 H 1872 V 1.2207e-4 H 0"
         id="path6016"
         inkscape:connector-curvature="0"
         style="clip-rule:evenodd" /></clipPath><clipPath
       clipPathUnits="userSpaceOnUse"
       id="clipPath6034"><path
         d="M -1.2207e-4,540 H 1872 V 1.2207e-4 H -6.1035e-5"
         id="path6032"
         inkscape:connector-curvature="0"
         style="clip-rule:evenodd" /></clipPath><clipPath
       clipPathUnits="userSpaceOnUse"
       id="clipPath6050"><path
         d="M -6.1035e-5,540 H 1872 V 6.1035e-5 H -6.1035e-5"
         id="path6048"
         inkscape:connector-curvature="0"
         style="clip-rule:evenodd" /></clipPath><clipPath
       clipPathUnits="userSpaceOnUse"
       id="clipPath6066"><path
         d="M 0,540 H 1872 V 6.1035e-5 H 0"
         id="path6064"
         inkscape:connector-curvature="0"
         style="clip-rule:evenodd" /></clipPath><clipPath
       clipPathUnits="userSpaceOnUse"
       id="clipPath6082"><path
         d="M -6.1035e-5,540 H 1872 V 1.2207e-4 H -6.1035e-5"
         id="path6080"
         inkscape:connector-curvature="0"
         style="clip-rule:evenodd" /></clipPath><clipPath
       clipPathUnits="userSpaceOnUse"
       id="clipPath6098"><path
         d="M 0,540 H 1872 V 1.2207e-4 H 0"
         id="path6096"
         inkscape:connector-curvature="0"
         style="clip-rule:evenodd" /></clipPath></defs><sodipodi:namedview
     pagecolor="#ffffff"
     bordercolor="#666666"
     borderopacity="1"
     objecttolerance="10"
     gridtolerance="10"
     guidetolerance="10"
     inkscape:pageopacity="0"
     inkscape:pageshadow="2"
     inkscape:window-width="2400"
     inkscape:window-height="1284"
     id="namedview5924"
     showgrid="false"
     inkscape:zoom="0.13581731"
     inkscape:cx="852.08001"
     inkscape:cy="281.45867"
     inkscape:window-x="-9"
     inkscape:window-y="-9"
     inkscape:window-maximized="1"
     inkscape:current-layer="g5930" /><g
     id="g5930"
     inkscape:groupmode="layer"
     inkscape:label="w8"
     transform="matrix(1.3333333,0,0,-1.3333333,-395.91999,462.23999)"><path
       d="m 340.2,180.5 c 0,8.54 6.92,15.46 15.46,15.46 h 61.84 c 8.54,0 15.46,-6.92 15.46,-15.46 v -61.84 c 0,-8.54 -6.92,-15.46 -15.46,-15.46 h -61.84 c -8.54,0 -15.46,6.92 -15.46,15.46 z"
       style="fill:#fbe5d6;fill-opacity:1;fill-rule:evenodd;stroke:none"
       id="path5942"
       inkscape:connector-curvature="0" /><path
       d="m 340.2,180.5 c 0,8.54 6.92,15.46 15.46,15.46 h 61.84 c 8.54,0 15.46,-6.92 15.46,-15.46 v -61.84 c 0,-8.54 -6.92,-15.46 -15.46,-15.46 h -61.84 c -8.54,0 -15.46,6.92 -15.46,15.46 z"
       style="fill:none;stroke:#41719c;stroke-width:0.95999998;stroke-linecap:butt;stroke-linejoin:miter;stroke-miterlimit:10;stroke-dasharray:none;stroke-opacity:1"
       id="path5944"
       inkscape:connector-curvature="0" /><path
       d="M 387.36,58.906 V 85.06 H 385.8 V 58.906 Z m 2.22,25.154 -3,6 -3,-6 z"
       style="fill:#000000;fill-opacity:1;fill-rule:nonzero;stroke:none"
       id="path5946"
       inkscape:connector-curvature="0" /><g
       id="g5948"><g
         id="g5950"
         clip-path="url(#clipPath5954)"><path
           d="m 296.94,145.68 h 26.15 v 1.56 h -26.15 z m 25.15,-2.22 6,3 -6,3 z"
           style="fill:#000000;fill-opacity:1;fill-rule:nonzero;stroke:none"
           id="path5956"
           inkscape:connector-curvature="0" /></g></g><path
       d="m 505.92,180.5 c 0,8.54 6.92,15.46 15.46,15.46 h 61.84 c 8.54,0 15.46,-6.92 15.46,-15.46 v -61.84 c 0,-8.54 -6.92,-15.46 -15.46,-15.46 h -61.84 c -8.54,0 -15.46,6.92 -15.46,15.46 z"
       style="fill:#fbe5d6;fill-opacity:1;fill-rule:evenodd;stroke:none"
       id="path5958"
       inkscape:connector-curvature="0" /><path
       d="m 505.92,180.5 c 0,8.54 6.92,15.46 15.46,15.46 h 61.84 c 8.54,0 15.46,-6.92 15.46,-15.46 v -61.84 c 0,-8.54 -6.92,-15.46 -15.46,-15.46 h -61.84 c -8.54,0 -15.46,6.92 -15.46,15.46 z"
       style="fill:none;stroke:#41719c;stroke-width:0.95999998;stroke-linecap:butt;stroke-linejoin:miter;stroke-miterlimit:10;stroke-dasharray:none;stroke-opacity:1"
       id="path5960"
       inkscape:connector-curvature="0" /><path
       d="M 553.2,58.906 V 85.06 h -1.56 V 58.906 Z m 2.22,25.154 -3,6 -3,-6 z"
       style="fill:#000000;fill-opacity:1;fill-rule:nonzero;stroke:none"
       id="path5962"
       inkscape:connector-curvature="0" /><g
       id="g5964"><g
         id="g5966"
         clip-path="url(#clipPath5970)"><path
           d="m 453.9,145.68 h 26.15 v 1.56 H 453.9 Z m 25.15,-2.22 6,3 -6,3 z"
           style="fill:#000000;fill-opacity:1;fill-rule:nonzero;stroke:none"
           id="path5972"
           inkscape:connector-curvature="0" /></g></g><path
       d="m 671.76,180.5 c 0,8.54 6.92,15.46 15.46,15.46 h 61.84 c 8.54,0 15.46,-6.92 15.46,-15.46 v -61.84 c 0,-8.54 -6.92,-15.46 -15.46,-15.46 h -61.84 c -8.54,0 -15.46,6.92 -15.46,15.46 z"
       style="fill:#fbe5d6;fill-opacity:1;fill-rule:evenodd;stroke:none"
       id="path5974"
       inkscape:connector-curvature="0" /><path
       d="m 671.76,180.5 c 0,8.54 6.92,15.46 15.46,15.46 h 61.84 c 8.54,0 15.46,-6.92 15.46,-15.46 v -61.84 c 0,-8.54 -6.92,-15.46 -15.46,-15.46 h -61.84 c -8.54,0 -15.46,6.92 -15.46,15.46 z"
       style="fill:none;stroke:#41719c;stroke-width:0.95999998;stroke-linecap:butt;stroke-linejoin:miter;stroke-miterlimit:10;stroke-dasharray:none;stroke-opacity:1"
       id="path5976"
       inkscape:connector-curvature="0" /><path
       d="M 718.92,58.906 V 85.06 h -1.56 V 58.906 Z m 2.22,25.154 -3,6 -3,-6 z"
       style="fill:#000000;fill-opacity:1;fill-rule:nonzero;stroke:none"
       id="path5978"
       inkscape:connector-curvature="0" /><g
       id="g5980"><g
         id="g5982"
         clip-path="url(#clipPath5986)"><path
           d="m 619.74,145.68 h 26.15 v 1.56 h -26.15 z m 25.15,-2.22 6,3 -6,3 z"
           style="fill:#000000;fill-opacity:1;fill-rule:nonzero;stroke:none"
           id="path5988"
           inkscape:connector-curvature="0" /></g></g><path
       d="m 340.2,330.74 c 0,8.54 6.92,15.46 15.46,15.46 h 61.84 c 8.54,0 15.46,-6.92 15.46,-15.46 V 268.9 c 0,-8.54 -6.92,-15.46 -15.46,-15.46 h -61.84 c -8.54,0 -15.46,6.92 -15.46,15.46 z"
       style="fill:#e2f0d9;fill-opacity:1;fill-rule:evenodd;stroke:none"
       id="path5990"
       inkscape:connector-curvature="0" /><path
       d="m 340.2,330.74 c 0,8.54 6.92,15.46 15.46,15.46 h 61.84 c 8.54,0 15.46,-6.92 15.46,-15.46 V 268.9 c 0,-8.54 -6.92,-15.46 -15.46,-15.46 h -61.84 c -8.54,0 -15.46,6.92 -15.46,15.46 z"
       style="fill:none;stroke:#41719c;stroke-width:0.95999998;stroke-linecap:butt;stroke-linejoin:miter;stroke-miterlimit:10;stroke-dasharray:none;stroke-opacity:1"
       id="path5992"
       inkscape:connector-curvature="0" /><path
       d="m 387.36,209.15 v 26.15 h -1.56 v -26.15 z m 2.22,25.15 -3,6 -3,-6 z"
       style="fill:#000000;fill-opacity:1;fill-rule:nonzero;stroke:none"
       id="path5994"
       inkscape:connector-curvature="0" /><g
       id="g5996"><g
         id="g5998"
         clip-path="url(#clipPath6002)"><path
           d="m 296.94,295.92 h 26.15 v 1.56 h -26.15 z m 25.15,-2.22 6,3 -6,3 z"
           style="fill:#000000;fill-opacity:1;fill-rule:nonzero;stroke:none"
           id="path6004"
           inkscape:connector-curvature="0" /></g></g><path
       d="m 505.92,330.74 c 0,8.54 6.92,15.46 15.46,15.46 h 61.84 c 8.54,0 15.46,-6.92 15.46,-15.46 V 268.9 c 0,-8.54 -6.92,-15.46 -15.46,-15.46 h -61.84 c -8.54,0 -15.46,6.92 -15.46,15.46 z"
       style="fill:#e2f0d9;fill-opacity:1;fill-rule:evenodd;stroke:none"
       id="path6006"
       inkscape:connector-curvature="0" /><path
       d="m 505.92,330.74 c 0,8.54 6.92,15.46 15.46,15.46 h 61.84 c 8.54,0 15.46,-6.92 15.46,-15.46 V 268.9 c 0,-8.54 -6.92,-15.46 -15.46,-15.46 h -61.84 c -8.54,0 -15.46,6.92 -15.46,15.46 z"
       style="fill:none;stroke:#41719c;stroke-width:0.95999998;stroke-linecap:butt;stroke-linejoin:miter;stroke-miterlimit:10;stroke-dasharray:none;stroke-opacity:1"
       id="path6008"
       inkscape:connector-curvature="0" /><path
       d="m 553.2,209.15 v 26.15 h -1.56 v -26.15 z m 2.22,25.15 -3,6 -3,-6 z"
       style="fill:#000000;fill-opacity:1;fill-rule:nonzero;stroke:none"
       id="path6010"
       inkscape:connector-curvature="0" /><g
       id="g6012"><g
         id="g6014"
         clip-path="url(#clipPath6018)"><path
           d="m 453.9,295.92 h 26.15 v 1.56 H 453.9 Z m 25.15,-2.22 6,3 -6,3 z"
           style="fill:#000000;fill-opacity:1;fill-rule:nonzero;stroke:none"
           id="path6020"
           inkscape:connector-curvature="0" /></g></g><path
       d="m 671.76,330.74 c 0,8.54 6.92,15.46 15.46,15.46 h 61.84 c 8.54,0 15.46,-6.92 15.46,-15.46 V 268.9 c 0,-8.54 -6.92,-15.46 -15.46,-15.46 h -61.84 c -8.54,0 -15.46,6.92 -15.46,15.46 z"
       style="fill:#e2f0d9;fill-opacity:1;fill-rule:evenodd;stroke:none"
       id="path6022"
       inkscape:connector-curvature="0" /><path
       d="m 671.76,330.74 c 0,8.54 6.92,15.46 15.46,15.46 h 61.84 c 8.54,0 15.46,-6.92 15.46,-15.46 V 268.9 c 0,-8.54 -6.92,-15.46 -15.46,-15.46 h -61.84 c -8.54,0 -15.46,6.92 -15.46,15.46 z"
       style="fill:none;stroke:#41719c;stroke-width:0.95999998;stroke-linecap:butt;stroke-linejoin:miter;stroke-miterlimit:10;stroke-dasharray:none;stroke-opacity:1"
       id="path6024"
       inkscape:connector-curvature="0" /><path
       d="m 718.92,209.15 v 26.15 h -1.56 v -26.15 z m 2.22,25.15 -3,6 -3,-6 z"
       style="fill:#000000;fill-opacity:1;fill-rule:nonzero;stroke:none"
       id="path6026"
       inkscape:connector-curvature="0" /><g
       id="g6028"><g
         id="g6030"
         clip-path="url(#clipPath6034)"><path
           d="m 619.74,295.92 h 26.15 v 1.56 h -26.15 z m 25.15,-2.22 6,3 -6,3 z"
           style="fill:#000000;fill-opacity:1;fill-rule:nonzero;stroke:none"
           id="path6036"
           inkscape:connector-curvature="0" /></g></g><path
       d="m 837.48,180.5 c 0,8.54 6.92,15.46 15.46,15.46 h 61.84 c 8.54,0 15.46,-6.92 15.46,-15.46 v -61.84 c 0,-8.54 -6.92,-15.46 -15.46,-15.46 h -61.84 c -8.54,0 -15.46,6.92 -15.46,15.46 z"
       style="fill:#fbe5d6;fill-opacity:1;fill-rule:evenodd;stroke:none"
       id="path6038"
       inkscape:connector-curvature="0" /><path
       d="m 837.48,180.5 c 0,8.54 6.92,15.46 15.46,15.46 h 61.84 c 8.54,0 15.46,-6.92 15.46,-15.46 v -61.84 c 0,-8.54 -6.92,-15.46 -15.46,-15.46 h -61.84 c -8.54,0 -15.46,6.92 -15.46,15.46 z"
       style="fill:none;stroke:#41719c;stroke-width:0.95999998;stroke-linecap:butt;stroke-linejoin:miter;stroke-miterlimit:10;stroke-dasharray:none;stroke-opacity:1"
       id="path6040"
       inkscape:connector-curvature="0" /><path
       d="M 884.76,58.906 V 85.06 H 883.2 V 58.906 Z m 2.22,25.154 -3,6 -3,-6 z"
       style="fill:#000000;fill-opacity:1;fill-rule:nonzero;stroke:none"
       id="path6042"
       inkscape:connector-curvature="0" /><g
       id="g6044"><g
         id="g6046"
         clip-path="url(#clipPath6050)"><path
           d="m 785.46,145.68 h 26.15 v 1.56 h -26.15 z m 25.15,-2.22 6,3 -6,3 z"
           style="fill:#000000;fill-opacity:1;fill-rule:nonzero;stroke:none"
           id="path6052"
           inkscape:connector-curvature="0" /></g></g><path
       d="m 1003.32,180.5 c 0,8.54 6.92,15.46 15.46,15.46 h 61.84 c 8.54,0 15.46,-6.92 15.46,-15.46 v -61.84 c 0,-8.54 -6.92,-15.46 -15.46,-15.46 h -61.84 c -8.54,0 -15.46,6.92 -15.46,15.46 z"
       style="fill:#fbe5d6;fill-opacity:1;fill-rule:evenodd;stroke:none"
       id="path6054"
       inkscape:connector-curvature="0" /><path
       d="m 1003.32,180.5 c 0,8.54 6.92,15.46 15.46,15.46 h 61.84 c 8.54,0 15.46,-6.92 15.46,-15.46 v -61.84 c 0,-8.54 -6.92,-15.46 -15.46,-15.46 h -61.84 c -8.54,0 -15.46,6.92 -15.46,15.46 z"
       style="fill:none;stroke:#41719c;stroke-width:0.95999998;stroke-linecap:butt;stroke-linejoin:miter;stroke-miterlimit:10;stroke-dasharray:none;stroke-opacity:1"
       id="path6056"
       inkscape:connector-curvature="0" /><path
       d="M 1050.48,58.906 V 85.06 h -1.56 V 58.906 Z m 2.22,25.154 -3,6 -3,-6 z"
       style="fill:#000000;fill-opacity:1;fill-rule:nonzero;stroke:none"
       id="path6058"
       inkscape:connector-curvature="0" /><g
       id="g6060"><g
         id="g6062"
         clip-path="url(#clipPath6066)"><path
           d="m 951.3,145.68 h 26.15 v 1.56 H 951.3 Z m 25.15,-2.22 6,3 -6,3 z"
           style="fill:#000000;fill-opacity:1;fill-rule:nonzero;stroke:none"
           id="path6068"
           inkscape:connector-curvature="0" /></g></g><path
       d="m 837.48,330.74 c 0,8.54 6.92,15.46 15.46,15.46 h 61.84 c 8.54,0 15.46,-6.92 15.46,-15.46 V 268.9 c 0,-8.54 -6.92,-15.46 -15.46,-15.46 h -61.84 c -8.54,0 -15.46,6.92 -15.46,15.46 z"
       style="fill:#e2f0d9;fill-opacity:1;fill-rule:evenodd;stroke:none"
       id="path6070"
       inkscape:connector-curvature="0" /><path
       d="m 837.48,330.74 c 0,8.54 6.92,15.46 15.46,15.46 h 61.84 c 8.54,0 15.46,-6.92 15.46,-15.46 V 268.9 c 0,-8.54 -6.92,-15.46 -15.46,-15.46 h -61.84 c -8.54,0 -15.46,6.92 -15.46,15.46 z"
       style="fill:none;stroke:#41719c;stroke-width:0.95999998;stroke-linecap:butt;stroke-linejoin:miter;stroke-miterlimit:10;stroke-dasharray:none;stroke-opacity:1"
       id="path6072"
       inkscape:connector-curvature="0" /><path
       d="m 884.76,209.15 v 26.15 h -1.56 v -26.15 z m 2.22,25.15 -3,6 -3,-6 z"
       style="fill:#000000;fill-opacity:1;fill-rule:nonzero;stroke:none"
       id="path6074"
       inkscape:connector-curvature="0" /><g
       id="g6076"><g
         id="g6078"
         clip-path="url(#clipPath6082)"><path
           d="m 785.46,295.92 h 26.15 v 1.56 h -26.15 z m 25.15,-2.22 6,3 -6,3 z"
           style="fill:#000000;fill-opacity:1;fill-rule:nonzero;stroke:none"
           id="path6084"
           inkscape:connector-curvature="0" /></g></g><path
       d="m 1003.32,330.74 c 0,8.54 6.92,15.46 15.46,15.46 h 61.84 c 8.54,0 15.46,-6.92 15.46,-15.46 V 268.9 c 0,-8.54 -6.92,-15.46 -15.46,-15.46 h -61.84 c -8.54,0 -15.46,6.92 -15.46,15.46 z"
       style="fill:#e2f0d9;fill-opacity:1;fill-rule:evenodd;stroke:none"
       id="path6086"
       inkscape:connector-curvature="0" /><path
       d="m 1003.32,330.74 c 0,8.54 6.92,15.46 15.46,15.46 h 61.84 c 8.54,0 15.46,-6.92 15.46,-15.46 V 268.9 c 0,-8.54 -6.92,-15.46 -15.46,-15.46 h -61.84 c -8.54,0 -15.46,6.92 -15.46,15.46 z"
       style="fill:none;stroke:#41719c;stroke-width:0.95999998;stroke-linecap:butt;stroke-linejoin:miter;stroke-miterlimit:10;stroke-dasharray:none;stroke-opacity:1"
       id="path6088"
       inkscape:connector-curvature="0" /><path
       d="m 1050.48,209.15 v 26.15 h -1.56 v -26.15 z m 2.22,25.15 -3,6 -3,-6 z"
       style="fill:#000000;fill-opacity:1;fill-rule:nonzero;stroke:none"
       id="path6090"
       inkscape:connector-curvature="0" /><g
       id="g6092"><g
         id="g6094"
         clip-path="url(#clipPath6098)"><path
           d="m 951.3,295.92 h 26.15 v 1.56 H 951.3 Z m 25.15,-2.22 6,3 -6,3 z"
           style="fill:#000000;fill-opacity:1;fill-rule:nonzero;stroke:none"
           id="path6100"
           inkscape:connector-curvature="0" /></g></g></g></svg>